<svg width="1440" height="600" viewBox="0 0 1440 600" fill="none" xmlns="http://www.w3.org/2000/svg">
<g clip-path="url(#clip0_49_15)">
<rect width="1440" height="600" fill="white"/>
<path d="M196.073 202.279L124.773 229.666C124.257 229.888 123.828 230.189 123.519 230.543C123.211 230.897 123.033 231.295 123 231.703V258.244C123.023 258.659 123.196 259.065 123.505 259.426C123.813 259.787 124.249 260.092 124.773 260.317L131.812 262.963C132.362 263.146 132.969 263.242 133.584 263.242C134.2 263.242 134.807 263.146 135.357 262.963L206.657 235.62C207.17 235.394 207.598 235.091 207.905 234.736C208.213 234.381 208.393 233.983 208.43 233.573V206.971C208.399 206.563 208.222 206.166 207.913 205.813C207.605 205.46 207.174 205.162 206.657 204.942L199.618 202.296C199.07 202.11 198.464 202.012 197.849 202.009C197.233 202.006 196.625 202.098 196.073 202.279Z" fill="#263238"/>
<path d="M208.403 206.759C208.271 206.16 207.543 205.948 206.657 206.283L135.37 233.67C134.847 233.889 134.414 234.193 134.114 234.553L123.529 230.504C123.812 230.144 124.232 229.84 124.746 229.622L196.046 202.279C196.597 202.095 197.204 202 197.819 202C198.434 202 199.041 202.095 199.592 202.279L206.63 204.925C207.105 205.129 207.508 205.398 207.814 205.715C208.12 206.031 208.321 206.387 208.403 206.759Z" fill="#455A64"/>
<path d="M206.657 206.292L135.357 233.635C134.847 233.862 134.422 234.165 134.117 234.52C133.811 234.875 133.634 235.273 133.598 235.681V262.249C133.598 262.998 134.391 263.307 135.357 262.928L206.657 235.584C207.17 235.358 207.598 235.056 207.905 234.701C208.213 234.345 208.393 233.947 208.43 233.538V206.971C208.43 206.221 207.636 205.913 206.657 206.292Z" fill="#37474F"/>
<path d="M151.221 240.471C151.221 240.683 151.221 240.965 151.221 241.353C151.221 241.741 151.221 242.085 151.221 242.464C151.221 242.844 151.221 243.223 151.221 243.585C151.221 243.946 151.221 244.229 151.221 244.467C151.251 244.755 151.317 245.041 151.419 245.322C151.499 245.57 151.672 245.801 151.922 245.993C152.15 246.149 152.456 246.243 152.782 246.257C153.254 246.25 153.714 246.152 154.105 245.975C154.6 245.799 155.047 245.57 155.428 245.296C156.039 244.852 156.492 244.321 156.751 243.743C156.857 243.479 156.949 243.249 157.002 243.038C157.052 242.824 157.137 242.614 157.254 242.412C157.369 242.259 157.554 242.135 157.783 242.059L160.68 240.912C160.73 240.884 160.794 240.869 160.859 240.869C160.924 240.869 160.988 240.884 161.038 240.912C161.144 240.999 161.196 241.109 161.183 241.221C161.163 242.055 160.972 242.883 160.614 243.682C160.257 244.517 159.755 245.322 159.119 246.081C158.485 246.83 157.731 247.531 156.87 248.171C156.069 248.787 155.127 249.314 154.078 249.732C153.203 250.109 152.195 250.325 151.154 250.359C150.352 250.366 149.573 250.182 148.958 249.838C148.298 249.438 147.813 248.926 147.556 248.356C147.22 247.633 147.033 246.882 147 246.125C147 245.496 147 244.817 147 244.087C147 243.358 147 242.653 147 241.97C147.034 241.078 147.216 240.19 147.542 239.324C147.874 238.441 148.344 237.584 148.945 236.766C149.538 235.971 150.276 235.228 151.141 234.553C151.976 233.902 152.969 233.351 154.078 232.921C154.921 232.569 155.879 232.357 156.87 232.303C157.658 232.263 158.445 232.39 159.119 232.665C159.797 232.967 160.319 233.402 160.614 233.909C161.005 234.55 161.199 235.237 161.183 235.929C161.179 236.075 161.13 236.219 161.038 236.352C160.966 236.471 160.841 236.573 160.68 236.643L157.704 237.79C157.439 237.887 157.267 237.904 157.174 237.834C157.043 237.707 156.957 237.563 156.923 237.41C156.861 237.235 156.777 237.064 156.672 236.899C156.569 236.736 156.399 236.595 156.182 236.493C155.936 236.392 155.65 236.343 155.362 236.352C154.889 236.38 154.434 236.486 154.039 236.661C153.536 236.843 153.087 237.085 152.716 237.375C152.369 237.66 152.08 237.975 151.856 238.31C151.627 238.649 151.458 239.004 151.353 239.368C151.269 239.733 151.225 240.102 151.221 240.471Z" fill="#F0F0F0"/>
<path d="M170.59 226.561C171.391 226.229 172.297 226.027 173.236 225.97C173.967 225.931 174.698 226.035 175.34 226.27C175.937 226.49 176.421 226.825 176.729 227.232C177.062 227.642 177.252 228.097 177.285 228.563C177.281 228.71 177.231 228.854 177.139 228.987C177.072 229.098 176.957 229.193 176.809 229.26L173.819 230.416C173.668 230.486 173.486 230.521 173.303 230.513C173.157 230.494 173.02 230.452 172.906 230.389L172.694 230.239C172.577 230.158 172.431 230.097 172.271 230.063C172.044 230.029 171.809 230.029 171.583 230.063C171.23 230.104 170.893 230.191 170.59 230.319C170.299 230.432 170.021 230.559 169.757 230.698C169.501 230.835 169.266 230.989 169.056 231.157C168.848 231.325 168.679 231.512 168.553 231.712C168.419 231.921 168.351 232.147 168.354 232.374C168.334 232.554 168.414 232.733 168.579 232.877C168.679 232.933 168.795 232.975 168.92 233.001C169.045 233.026 169.177 233.035 169.307 233.027C169.755 233.014 170.199 232.967 170.63 232.885L172.72 232.524C173.428 232.384 174.166 232.321 174.903 232.339C175.476 232.351 176.025 232.491 176.465 232.736C176.923 233.014 177.249 233.376 177.404 233.776C177.625 234.352 177.727 234.946 177.708 235.54C177.711 236.329 177.537 237.114 177.192 237.869C176.842 238.625 176.358 239.35 175.75 240.03C175.125 240.713 174.374 241.341 173.514 241.9C172.672 242.458 171.725 242.942 170.696 243.338C169.842 243.694 168.879 243.92 167.878 243.999C167.123 244.064 166.355 243.972 165.682 243.735C165.055 243.512 164.55 243.163 164.24 242.738C163.869 242.267 163.67 241.744 163.657 241.212C163.66 241.064 163.714 240.919 163.816 240.789C163.878 240.673 163.994 240.574 164.147 240.506L167.124 239.36C167.273 239.293 167.447 239.256 167.627 239.254C167.758 239.266 167.882 239.303 167.984 239.36C168.083 239.42 168.175 239.485 168.262 239.554C168.399 239.656 168.566 239.74 168.751 239.801C168.991 239.874 169.256 239.905 169.519 239.889C169.93 239.856 170.324 239.76 170.67 239.607C171.419 239.329 172.101 238.978 172.694 238.566C173.2 238.221 173.489 237.76 173.501 237.278C173.517 237.189 173.498 237.099 173.444 237.017C173.391 236.935 173.305 236.863 173.197 236.811C172.921 236.724 172.612 236.693 172.31 236.722C171.8 236.757 171.295 236.822 170.802 236.916C170.18 237.031 169.479 237.155 168.632 237.287C168.063 237.441 167.439 237.486 166.833 237.416C166.228 237.346 165.663 237.164 165.205 236.89C164.353 236.075 163.968 235.082 164.121 234.094C164.128 233.387 164.275 232.684 164.557 232.003C164.874 231.269 165.318 230.561 165.88 229.895C166.436 229.211 167.121 228.577 167.918 228.008C168.693 227.438 169.594 226.95 170.59 226.561Z" fill="#F0F0F0"/>
<path d="M187.076 220.219C187.875 219.884 188.782 219.679 189.722 219.62C190.451 219.589 191.179 219.692 191.826 219.919C192.393 220.151 192.851 220.484 193.149 220.881C193.479 221.304 193.66 221.771 193.678 222.248C193.675 222.395 193.621 222.54 193.519 222.671C193.457 222.784 193.341 222.88 193.188 222.945L190.212 224.091C190.062 224.164 189.88 224.201 189.696 224.197C189.549 224.181 189.412 224.138 189.299 224.074L189.087 223.924C188.968 223.844 188.823 223.784 188.664 223.747C188.438 223.709 188.201 223.709 187.976 223.747C187.622 223.787 187.285 223.874 186.983 224.003C186.692 224.116 186.414 224.243 186.15 224.383C185.89 224.519 185.65 224.673 185.435 224.841C185.232 225.009 185.067 225.197 184.946 225.397C184.812 225.606 184.744 225.831 184.747 226.058C184.72 226.235 184.795 226.412 184.959 226.552C185.058 226.611 185.173 226.655 185.298 226.682C185.423 226.709 185.556 226.719 185.687 226.711C186.134 226.699 186.579 226.651 187.01 226.57L189.1 226.208C189.855 226.042 190.647 225.964 191.442 225.979C192.012 225.993 192.559 226.129 193.003 226.367C193.461 226.649 193.787 227.014 193.943 227.417C194.164 227.993 194.266 228.586 194.247 229.181C194.25 229.971 194.072 230.756 193.718 231.509C193.371 232.272 192.877 233.001 192.249 233.679C191.626 234.361 190.88 234.989 190.026 235.549C189.181 236.105 188.234 236.588 187.208 236.987C186.354 237.343 185.391 237.569 184.39 237.648C183.631 237.704 182.864 237.612 182.181 237.384C181.557 237.159 181.053 236.811 180.738 236.387C180.368 235.91 180.177 235.381 180.183 234.844C180.184 234.699 180.238 234.556 180.342 234.429C180.4 234.315 180.511 234.216 180.659 234.147L183.649 233C183.801 232.936 183.973 232.896 184.152 232.885C184.283 232.898 184.407 232.935 184.509 232.991C184.607 233.056 184.7 233.123 184.787 233.194C184.923 233.296 185.09 233.377 185.277 233.432C185.513 233.512 185.781 233.543 186.044 233.52C186.454 233.49 186.849 233.397 187.195 233.247C187.945 232.967 188.627 232.613 189.219 232.197C189.727 231.857 190.016 231.398 190.026 230.918C190.043 230.83 190.023 230.739 189.97 230.657C189.916 230.575 189.831 230.504 189.722 230.451C189.448 230.36 189.138 230.329 188.836 230.363C188.324 230.393 187.819 230.458 187.327 230.557C186.71 230.669 185.982 230.792 185.144 230.927C184.574 231.079 183.952 231.122 183.347 231.052C182.742 230.982 182.178 230.801 181.718 230.53C180.878 229.711 180.499 228.721 180.646 227.734C180.653 227.028 180.8 226.325 181.082 225.644C181.399 224.909 181.843 224.202 182.405 223.536C182.965 222.85 183.649 222.213 184.443 221.639C185.208 221.08 186.096 220.601 187.076 220.219Z" fill="#F0F0F0"/>
<path d="M196.073 257.424L124.773 284.767C124.26 284.993 123.832 285.296 123.525 285.651C123.217 286.006 123.037 286.404 123 286.813V313.345C123.033 313.753 123.211 314.149 123.52 314.502C123.828 314.855 124.257 315.154 124.773 315.374L131.812 318.02C132.362 318.203 132.969 318.299 133.584 318.299C134.2 318.299 134.807 318.203 135.357 318.02L206.657 290.677C207.17 290.451 207.598 290.148 207.905 289.793C208.213 289.438 208.393 289.04 208.43 288.63V262.081C208.397 261.673 208.219 261.277 207.91 260.924C207.602 260.571 207.173 260.273 206.657 260.052L199.618 257.406C199.066 257.226 198.458 257.133 197.842 257.136C197.227 257.139 196.621 257.238 196.073 257.424Z" fill="#263238"/>
<path d="M208.403 261.896C208.271 261.305 207.543 261.093 206.657 261.428L135.37 288.771C134.847 288.99 134.414 289.294 134.114 289.654L123.529 285.605C123.821 285.261 124.24 284.973 124.746 284.767L196.046 257.424C196.597 257.241 197.204 257.145 197.819 257.145C198.434 257.145 199.041 257.241 199.592 257.424L206.63 260.07C207.108 260.27 207.514 260.537 207.82 260.852C208.126 261.167 208.326 261.524 208.403 261.896Z" fill="#455A64"/>
<path d="M206.657 261.428L135.357 288.771C134.847 288.999 134.422 289.302 134.117 289.657C133.811 290.012 133.634 290.409 133.598 290.818V317.385C133.598 318.135 134.391 318.443 135.357 318.064L206.657 290.721C207.17 290.495 207.598 290.192 207.905 289.837C208.213 289.482 208.393 289.084 208.43 288.674V262.081C208.43 261.358 207.636 261.049 206.657 261.428Z" fill="#37474F"/>
<path d="M151.551 289.265C151.612 289.23 151.689 289.211 151.77 289.211C151.85 289.211 151.928 289.23 151.988 289.265C152.055 289.317 152.106 289.377 152.138 289.443C152.17 289.508 152.182 289.576 152.173 289.645V304.736C152.169 304.914 152.105 305.089 151.988 305.248C151.905 305.395 151.752 305.519 151.551 305.601L148.574 306.748C148.515 306.785 148.437 306.805 148.356 306.805C148.275 306.805 148.197 306.785 148.138 306.748C148.071 306.697 148.021 306.638 147.989 306.575C147.957 306.511 147.945 306.444 147.953 306.377V300.653L142.899 302.593V308.318C142.899 308.497 142.84 308.675 142.727 308.838C142.63 308.979 142.479 309.101 142.29 309.191L139.313 310.337C139.25 310.37 139.174 310.387 139.095 310.387C139.016 310.387 138.939 310.37 138.876 310.337C138.807 310.285 138.755 310.223 138.723 310.156C138.692 310.089 138.681 310.019 138.691 309.949V294.849C138.696 294.668 138.759 294.491 138.876 294.328C138.967 294.185 139.119 294.062 139.313 293.976L142.29 292.829C142.351 292.795 142.429 292.777 142.508 292.777C142.588 292.777 142.665 292.795 142.727 292.829C142.791 292.88 142.84 292.939 142.869 293.002C142.899 293.066 142.909 293.133 142.899 293.199V298.827L147.953 296.886V291.277C147.959 291.099 148.022 290.925 148.138 290.765C148.225 290.62 148.377 290.497 148.574 290.412L151.551 289.265Z" fill="#F0F0F0"/>
<path d="M168.196 282.862C168.255 282.825 168.333 282.804 168.414 282.804C168.495 282.804 168.573 282.825 168.632 282.862C168.699 282.912 168.749 282.971 168.781 283.035C168.813 283.098 168.825 283.165 168.818 283.232V285.711C168.814 285.888 168.751 286.063 168.632 286.222C168.546 286.37 168.393 286.496 168.196 286.584L164.227 288.119V300.106C164.227 300.285 164.168 300.463 164.055 300.626C163.956 300.766 163.805 300.888 163.618 300.979L160.641 302.126C160.579 302.158 160.502 302.175 160.423 302.175C160.344 302.175 160.267 302.158 160.204 302.126C160.137 302.074 160.086 302.014 160.054 301.948C160.022 301.883 160.01 301.815 160.019 301.746V289.759L156.05 291.303C155.988 291.337 155.911 291.355 155.832 291.355C155.752 291.355 155.675 291.337 155.613 291.303C155.548 291.251 155.5 291.19 155.47 291.125C155.441 291.06 155.431 290.991 155.441 290.924V288.454C155.441 288.274 155.5 288.097 155.613 287.934C155.705 287.79 155.856 287.668 156.05 287.581L168.196 282.862Z" fill="#F0F0F0"/>
<path d="M178.661 291.065C178.533 290.989 178.426 290.9 178.344 290.8L176.214 287.766V295.501C176.209 295.679 176.146 295.854 176.028 296.013C175.946 296.16 175.792 296.284 175.592 296.366L172.615 297.513C172.556 297.55 172.478 297.571 172.396 297.571C172.315 297.571 172.237 297.55 172.178 297.513C172.112 297.462 172.061 297.403 172.029 297.34C171.998 297.276 171.985 297.209 171.993 297.142V282.024C171.998 281.846 172.061 281.672 172.178 281.512C172.265 281.367 172.418 281.244 172.615 281.16L175.261 280.145C175.552 280.022 175.79 280.022 175.936 280.145C176.051 280.226 176.154 280.314 176.24 280.41L179.918 285.455L183.609 277.57C183.694 277.402 183.791 277.237 183.901 277.076C184.044 276.859 184.284 276.677 184.588 276.555L187.235 275.541C187.294 275.508 187.369 275.49 187.446 275.49C187.524 275.49 187.599 275.508 187.658 275.541C187.725 275.593 187.777 275.653 187.808 275.718C187.84 275.783 187.852 275.852 187.843 275.92V291.012C187.838 291.192 187.775 291.37 187.658 291.532C187.565 291.672 187.419 291.794 187.235 291.885L184.244 293.032C184.183 293.065 184.106 293.084 184.026 293.084C183.947 293.084 183.869 293.065 183.808 293.032C183.742 292.982 183.692 292.923 183.663 292.859C183.633 292.795 183.624 292.728 183.636 292.661V284.926L181.493 289.609C181.405 289.781 181.303 289.948 181.188 290.112C181.076 290.282 180.886 290.424 180.646 290.518L179.19 291.074C178.965 291.188 178.793 291.188 178.661 291.065Z" fill="#F0F0F0"/>
<path d="M203.349 281.953C203.41 281.918 203.487 281.898 203.568 281.898C203.648 281.898 203.726 281.918 203.786 281.953C203.853 282.003 203.904 282.062 203.936 282.126C203.968 282.19 203.98 282.257 203.971 282.324V284.802C203.967 284.98 203.903 285.155 203.786 285.314C203.703 285.461 203.55 285.585 203.349 285.667L192.765 289.724C192.705 289.759 192.627 289.779 192.547 289.779C192.466 289.779 192.389 289.759 192.328 289.724C192.262 289.674 192.211 289.615 192.18 289.551C192.148 289.488 192.135 289.421 192.143 289.354V274.262C192.148 274.084 192.211 273.91 192.328 273.75C192.411 273.604 192.565 273.48 192.765 273.398L195.742 272.251C195.801 272.214 195.879 272.193 195.96 272.193C196.041 272.193 196.119 272.214 196.178 272.251C196.242 272.302 196.291 272.361 196.32 272.425C196.35 272.488 196.36 272.555 196.35 272.621V284.608L203.349 281.953Z" fill="#F0F0F0"/>
<path d="M1016.64 223.618C1057.76 299.085 992.477 402.565 877.333 454.964C762.189 507.033 596.155 507.692 503.114 460.566C410.073 413.44 390.026 318.199 431.663 242.402C473.3 166.605 576.621 109.922 702.561 105.309C827.986 100.695 975 148.151 1016.64 223.618Z" fill="#FF0066" fill-opacity="0.5"/>
<path d="M166.806 389.709L161.064 382.468L165.708 373.515V368.037L151.485 373.515V378.992L157.598 386.049C157.691 386.162 157.841 386.249 158.021 386.296L166.806 389.709Z" fill="#7E57C2"/>
<path opacity="0.2" d="M166.806 389.709L161.064 382.468L165.708 373.515V368.037L151.485 373.515V378.992L157.598 386.049C157.691 386.162 157.841 386.249 158.021 386.296L166.806 389.709Z" fill="black"/>
<path d="M200.756 324.491C200.675 323.503 200.245 322.542 199.503 321.685C198.761 320.829 197.726 320.101 196.483 319.56L193.016 318.229C191.694 317.781 190.232 317.547 188.749 317.547C187.266 317.547 185.804 317.781 184.482 318.229L131.229 338.771C129.988 339.312 128.955 340.04 128.215 340.897C127.475 341.754 127.048 342.715 126.969 343.702V382.785C127.05 383.771 127.478 384.73 128.218 385.585C128.958 386.44 129.99 387.167 131.229 387.707L134.709 389.048C136.031 389.495 137.493 389.729 138.976 389.729C140.459 389.729 141.921 389.495 143.243 389.048L160.376 382.45L166.489 389.506C166.574 389.608 166.702 389.691 166.857 389.745C167.012 389.799 167.187 389.822 167.361 389.811C167.535 389.8 167.7 389.755 167.837 389.682C167.973 389.609 168.075 389.511 168.129 389.4L174.586 376.981L196.522 368.514C197.76 367.97 198.788 367.239 199.523 366.381C200.259 365.523 200.681 364.561 200.756 363.574V324.491Z" fill="#FFA500"/>
<path opacity="0.2" d="M126.969 382.785C127.05 383.771 127.478 384.73 128.218 385.585C128.958 386.44 129.99 387.167 131.229 387.707L134.709 389.048C135.912 389.451 137.23 389.68 138.575 389.719C139.921 389.759 141.263 389.608 142.515 389.277C140.504 389.78 138.969 389.03 138.969 387.407V348.324C139.025 347.333 139.458 346.368 140.226 345.519L128.213 340.897C127.448 341.746 127.02 342.712 126.969 343.702V382.785Z" fill="black"/>
<path opacity="0.5" d="M200.65 323.68C200.161 322.471 198.507 322.092 196.535 322.842L143.243 343.393C141.978 343.913 140.942 344.646 140.239 345.519L128.226 340.897C128.941 340.033 129.974 339.304 131.229 338.78L184.509 318.229C185.831 317.781 187.293 317.547 188.776 317.547C190.259 317.547 191.721 317.781 193.043 318.229L196.535 319.569C197.605 320.032 198.521 320.635 199.229 321.342C199.936 322.048 200.42 322.844 200.65 323.68Z" fill="white"/>
<path d="M146.815 363.662C146.804 363.385 146.876 363.109 147.027 362.851C147.207 362.589 147.415 362.335 147.648 362.092L159.238 349.612C159.287 349.555 159.35 349.504 159.424 349.462L159.556 349.4C159.614 349.365 159.69 349.346 159.768 349.346C159.846 349.346 159.921 349.365 159.979 349.4C160.047 349.452 160.098 349.512 160.13 349.577C160.162 349.642 160.173 349.711 160.165 349.779V354.595C160.179 354.944 160.061 355.29 159.821 355.601C159.647 355.829 159.452 356.05 159.238 356.262L153.258 362.331L159.238 364.165C159.444 364.21 159.639 364.272 159.821 364.35C160.046 364.447 160.165 364.694 160.165 365.082V368.505C160.163 368.683 160.1 368.858 159.979 369.016C159.898 369.161 159.749 369.284 159.556 369.369H159.424C159.363 369.382 159.299 369.382 159.238 369.369L147.648 365.841C147.41 365.782 147.196 365.685 147.027 365.559C146.852 365.365 146.778 365.139 146.815 364.915V363.662Z" fill="white"/>
<path d="M172.059 344.381C172.172 344.115 172.318 343.855 172.496 343.605C172.679 343.35 172.974 343.137 173.342 342.996L177.219 341.47C177.281 341.434 177.361 341.414 177.444 341.414C177.526 341.414 177.606 341.434 177.669 341.47C177.804 341.578 177.871 341.718 177.854 341.858C177.87 341.955 177.87 342.053 177.854 342.149L168.063 369.969C167.967 370.228 167.83 370.479 167.653 370.719C167.47 370.982 167.17 371.2 166.793 371.345L162.996 372.809C162.934 372.845 162.854 372.865 162.771 372.865C162.688 372.865 162.609 372.845 162.546 372.809C162.476 372.757 162.423 372.695 162.391 372.628C162.359 372.562 162.349 372.491 162.361 372.421C162.344 372.327 162.344 372.233 162.361 372.139L172.059 344.381Z" fill="white"/>
<path d="M193.347 348.879C193.36 349.157 193.288 349.433 193.135 349.691C192.955 349.953 192.747 350.207 192.513 350.449L180.91 362.939C180.854 362.989 180.792 363.037 180.725 363.08L180.592 363.151C180.532 363.186 180.455 363.206 180.374 363.206C180.294 363.206 180.216 363.186 180.156 363.151C180.089 363.099 180.039 363.039 180.009 362.973C179.98 362.908 179.971 362.839 179.984 362.772V357.938C179.964 357.595 180.078 357.255 180.315 356.95C180.54 356.685 180.738 356.474 180.91 356.306L185.977 351.085L180.91 349.797C180.697 349.751 180.496 349.682 180.315 349.594C180.09 349.488 179.984 349.241 179.984 348.844V344.028C179.983 343.851 180.041 343.676 180.156 343.517C180.25 343.377 180.402 343.258 180.592 343.173H180.725H180.91L192.5 346.701C192.78 346.751 193.021 346.869 193.176 347.033C193.33 347.196 193.387 347.393 193.334 347.583L193.347 348.879Z" fill="white"/>
</g>
<defs>
<clipPath id="clip0_49_15">
<rect width="1440" height="600" fill="white"/>
</clipPath>
</defs>
</svg>
