<svg width="35" height="35" viewBox="0 0 35 35" fill="none" xmlns="http://www.w3.org/2000/svg">
<path d="M23.99 0H10.16C4.54879 0 0 4.54879 0 10.16V23.99C0 29.6012 4.54879 34.15 10.16 34.15H23.99C29.6012 34.15 34.15 29.6012 34.15 23.99V10.16C34.15 4.54879 29.6012 0 23.99 0Z" fill="#455A64"/>
<path d="M9 25.3599L10.25 20.72C9.24845 18.9112 8.93287 16.8019 9.36118 14.7793C9.78948 12.7566 10.9329 10.9563 12.5817 9.70873C14.2304 8.4612 16.2737 7.85018 18.3367 7.98782C20.3996 8.12545 22.3437 9.00253 23.8121 10.458C25.2805 11.9135 26.1746 13.8498 26.3304 15.9114C26.4862 17.9731 25.8932 20.0217 24.6602 21.6814C23.4273 23.341 21.6371 24.5003 19.6183 24.9464C17.5995 25.3925 15.4875 25.0955 13.67 24.1099L9 25.3599ZM13.9 22.3599L14.19 22.53C15.6575 23.4085 17.3958 23.7193 19.0768 23.4038C20.7578 23.0883 22.2651 22.1682 23.3141 20.8174C24.3632 19.4666 24.8814 17.7784 24.7709 16.0716C24.6604 14.3649 23.9288 12.7576 22.7143 11.5533C21.4998 10.3491 19.8865 9.63107 18.1788 9.53497C16.4712 9.43886 14.7875 9.97129 13.4455 11.0317C12.1036 12.0921 11.1963 13.6071 10.895 15.2907C10.5937 16.9743 10.9192 18.7099 11.81 20.1699L11.99 20.46L11.29 23.06L13.9 22.3599Z" fill="white"/>
<path d="M17.9489 22.3011C17.0795 22.3011 16.3111 22.1818 15.6435 21.9432C14.9759 21.7074 14.4148 21.3594 13.9602 20.8991C13.5057 20.4389 13.1619 19.875 12.929 19.2074C12.696 18.5398 12.5795 17.7756 12.5795 16.9148C12.5795 16.0824 12.6974 15.3381 12.9332 14.6818C13.1719 14.0256 13.517 13.4688 13.9688 13.0114C14.4233 12.5511 14.9744 12.2003 15.6222 11.9588C16.2727 11.7173 17.0085 11.5966 17.8295 11.5966C18.6278 11.5966 19.3267 11.7273 19.9261 11.9886C20.5284 12.2472 21.0313 12.598 21.4347 13.0412C21.8409 13.4815 22.1449 13.9773 22.3466 14.5284C22.5511 15.0795 22.6534 15.6477 22.6534 16.233C22.6534 16.6449 22.6335 17.0625 22.5938 17.4858C22.554 17.9091 22.4702 18.2983 22.3423 18.6534C22.2145 19.0057 22.017 19.2898 21.75 19.5057C21.4858 19.7216 21.1278 19.8295 20.6761 19.8295C20.4773 19.8295 20.2585 19.7983 20.0199 19.7358C19.7812 19.6733 19.5696 19.5696 19.3849 19.4247C19.2003 19.2798 19.0909 19.0852 19.0568 18.8409H19.0057C18.9375 19.0057 18.8324 19.1619 18.6903 19.3097C18.5511 19.4574 18.3679 19.5753 18.1406 19.6634C17.9162 19.7514 17.642 19.7898 17.3182 19.7784C16.9489 19.7642 16.6236 19.6818 16.3423 19.5312C16.0611 19.3778 15.8253 19.1705 15.6349 18.9091C15.4474 18.6449 15.3054 18.3395 15.2088 17.9929C15.1151 17.6435 15.0682 17.267 15.0682 16.8636C15.0682 16.4801 15.125 16.1293 15.2386 15.8111C15.3523 15.4929 15.5099 15.2145 15.7116 14.9759C15.9162 14.7372 16.1548 14.5469 16.4276 14.4048C16.7031 14.2599 17 14.1705 17.3182 14.1364C17.6023 14.108 17.8608 14.1207 18.0938 14.1747C18.3267 14.2259 18.5185 14.304 18.669 14.4091C18.8196 14.5114 18.9148 14.625 18.9545 14.75H19.0057V14.2727H19.9091V18.125C19.9091 18.3636 19.9759 18.5739 20.1094 18.7557C20.2429 18.9375 20.4375 19.0284 20.6932 19.0284C20.983 19.0284 21.2045 18.929 21.358 18.7301C21.5142 18.5312 21.6207 18.2244 21.6776 17.8097C21.7372 17.3949 21.767 16.8636 21.767 16.2159C21.767 15.8352 21.7145 15.4602 21.6094 15.0909C21.5071 14.7187 21.3509 14.3707 21.1406 14.0469C20.9332 13.723 20.6705 13.4375 20.3523 13.1903C20.0341 12.9432 19.6605 12.75 19.2315 12.6108C18.8054 12.4687 18.321 12.3977 17.7784 12.3977C17.1108 12.3977 16.5128 12.5014 15.9844 12.7088C15.4588 12.9134 15.0114 13.2131 14.642 13.608C14.2756 14 13.9957 14.4773 13.8026 15.0398C13.6122 15.5994 13.517 16.2358 13.517 16.9489C13.517 17.6733 13.6122 18.3168 13.8026 18.8793C13.9957 19.4418 14.2798 19.9162 14.6548 20.3026C15.0327 20.6889 15.5 20.9815 16.0568 21.1804C16.6136 21.3821 17.2557 21.483 17.983 21.483C18.2955 21.483 18.6037 21.4531 18.9077 21.3935C19.2116 21.3338 19.4801 21.2685 19.7131 21.1974C19.946 21.1264 20.1136 21.0739 20.2159 21.0398L20.4545 21.8239C20.2784 21.8977 20.0483 21.9716 19.7642 22.0455C19.483 22.1193 19.1818 22.1804 18.8608 22.2287C18.5426 22.277 18.2386 22.3011 17.9489 22.3011ZM17.4545 18.9091C17.8352 18.9091 18.1435 18.8324 18.3793 18.679C18.6151 18.5256 18.7869 18.294 18.8949 17.9844C19.0028 17.6747 19.0568 17.2841 19.0568 16.8125C19.0568 16.3352 18.9972 15.9631 18.8778 15.696C18.7585 15.429 18.5824 15.2415 18.3494 15.1335C18.1165 15.0256 17.8295 14.9716 17.4886 14.9716C17.1648 14.9716 16.8878 15.0568 16.6577 15.2273C16.4304 15.3949 16.2557 15.6193 16.1335 15.9006C16.0142 16.179 15.9545 16.483 15.9545 16.8125C15.9545 17.1761 16.0028 17.5185 16.0994 17.8395C16.196 18.1577 16.3537 18.4162 16.5724 18.6151C16.7912 18.8111 17.0852 18.9091 17.4545 18.9091Z" fill="white"/>
</svg>
