<svg width="1542" height="123" viewBox="0 0 1542 123" fill="none" xmlns="http://www.w3.org/2000/svg">
<g clip-path="url(#clip0_100_2106)">
<g filter="url(#filter0_d_100_2106)">
<path d="M26.9403 97L5.77557 24.2727H25.2003L36.1733 71.929H36.777L49.3125 24.2727H65.1506L77.6861 72.0355H78.2898L89.2983 24.2727H108.688L87.5582 97H70.6193L57.5156 52.8949H56.9474L43.8438 97H26.9403ZM115.95 97V24.2727H166.66V38.5483H133.528V53.4631H164.067V67.7741H133.528V82.7244H166.66V97H115.95ZM177.668 97V24.2727H207.995C213.44 24.2727 217.997 25.0421 221.667 26.581C225.36 28.1198 228.13 30.2741 229.977 33.044C231.847 35.8139 232.782 39.0218 232.782 42.6676C232.782 45.4375 232.202 47.9115 231.042 50.0895C229.882 52.2438 228.284 54.0312 226.248 55.4517C224.212 56.8722 221.856 57.8665 219.181 58.4347V59.1449C222.117 59.2869 224.827 60.08 227.313 61.5241C229.823 62.9683 231.835 64.9806 233.35 67.5611C234.865 70.1179 235.623 73.1482 235.623 76.652C235.623 80.5582 234.629 84.0502 232.64 87.1278C230.651 90.1818 227.775 92.5966 224.011 94.3722C220.246 96.1241 215.677 97 210.303 97H177.668ZM195.246 82.831H206.113C209.924 82.831 212.73 82.1089 214.529 80.6648C216.352 79.2206 217.263 77.2083 217.263 74.6278C217.263 72.7576 216.826 71.1477 215.95 69.7983C215.074 68.4252 213.831 67.3717 212.221 66.6378C210.611 65.8802 208.682 65.5014 206.433 65.5014H195.246V82.831ZM195.246 54.1733H204.977C206.894 54.1733 208.599 53.8537 210.09 53.2145C211.582 52.5753 212.742 51.652 213.57 50.4446C214.423 49.2372 214.849 47.7812 214.849 46.0767C214.849 43.6383 213.985 41.7206 212.256 40.3239C210.528 38.9271 208.196 38.2287 205.261 38.2287H195.246V54.1733Z" fill="url(#paint0_linear_100_2106)" shape-rendering="crispEdges"/>
</g>
<g filter="url(#filter1_d_100_2106)">
<path d="M1175.39 97H1148.5V24.2727H1175.35C1182.76 24.2727 1189.14 25.7287 1194.49 28.6406C1199.87 31.5289 1204.01 35.6955 1206.92 41.1406C1209.83 46.562 1211.29 53.0488 1211.29 60.6009C1211.29 68.1766 1209.83 74.687 1206.92 80.1321C1204.03 85.5772 1199.9 89.7557 1194.53 92.6676C1189.15 95.5559 1182.77 97 1175.39 97ZM1166.08 82.0142H1174.71C1178.78 82.0142 1182.23 81.3277 1185.05 79.9545C1187.89 78.5578 1190.03 76.2969 1191.47 73.1719C1192.94 70.0232 1193.67 65.8329 1193.67 60.6009C1193.67 55.3688 1192.94 51.2022 1191.47 48.1009C1190.01 44.9759 1187.84 42.7268 1184.97 41.3537C1182.13 39.9569 1178.63 39.2585 1174.46 39.2585H1166.08V82.0142ZM1221.55 97V24.2727H1272.26V38.5483H1239.13V53.4631H1269.67V67.7741H1239.13V82.7244H1272.26V97H1221.55ZM1322.58 46.0767C1322.34 43.4725 1321.29 41.4484 1319.42 40.0043C1317.57 38.5365 1314.93 37.8026 1311.5 37.8026C1309.23 37.8026 1307.33 38.0985 1305.82 38.6903C1304.3 39.2822 1303.17 40.099 1302.41 41.1406C1301.65 42.1586 1301.26 43.3305 1301.24 44.6562C1301.19 45.7453 1301.4 46.7041 1301.88 47.5327C1302.38 48.3613 1303.09 49.0952 1304.01 49.7344C1304.96 50.3499 1306.09 50.8944 1307.42 51.3679C1308.74 51.8414 1310.23 52.2557 1311.89 52.6108L1318.14 54.0312C1321.74 54.8125 1324.91 55.8542 1327.66 57.1562C1330.43 58.4583 1332.75 60.009 1334.62 61.8082C1336.51 63.6075 1337.95 65.679 1338.92 68.0227C1339.89 70.3665 1340.38 72.9943 1340.41 75.9062C1340.38 80.4991 1339.22 84.4408 1336.93 87.7315C1334.63 91.0223 1331.33 93.5436 1327.02 95.2955C1322.73 97.0473 1317.56 97.9233 1311.5 97.9233C1305.42 97.9233 1300.11 97.0118 1295.59 95.1889C1291.07 93.366 1287.55 90.5961 1285.05 86.8793C1282.54 83.1624 1281.25 78.4631 1281.17 72.7812H1298.01C1298.15 75.125 1298.78 77.0781 1299.89 78.6406C1301 80.2031 1302.53 81.3868 1304.47 82.1918C1306.44 82.9967 1308.71 83.3991 1311.29 83.3991C1313.66 83.3991 1315.67 83.0795 1317.33 82.4403C1319.01 81.8011 1320.3 80.9134 1321.2 79.777C1322.1 78.6406 1322.56 77.3385 1322.58 75.8707C1322.56 74.4976 1322.13 73.3258 1321.3 72.3551C1320.47 71.3608 1319.2 70.5085 1317.47 69.7983C1315.76 69.0644 1313.58 68.3897 1310.93 67.7741L1303.33 65.9986C1297.04 64.5544 1292.08 62.2225 1288.45 59.0028C1284.83 55.7595 1283.03 51.3797 1283.06 45.8636C1283.03 41.3655 1284.24 37.4238 1286.68 34.0384C1289.12 30.6529 1292.49 28.0133 1296.8 26.1193C1301.11 24.2254 1306.02 23.2784 1311.54 23.2784C1317.17 23.2784 1322.06 24.2372 1326.2 26.1548C1330.37 28.0488 1333.6 30.7121 1335.9 34.1449C1338.19 37.5777 1339.37 41.5549 1339.41 46.0767H1322.58ZM1366.86 24.2727V97H1349.29V24.2727H1366.86ZM1425.63 48.0298C1425.22 46.5384 1424.63 45.2244 1423.85 44.0881C1423.07 42.928 1422.11 41.9455 1420.97 41.1406C1419.84 40.3357 1418.54 39.732 1417.07 39.3295C1415.6 38.9034 1413.99 38.6903 1412.24 38.6903C1408.71 38.6903 1405.66 39.5426 1403.08 41.2472C1400.52 42.9517 1398.54 45.4375 1397.15 48.7045C1395.75 51.9479 1395.05 55.8897 1395.05 60.5298C1395.05 65.1937 1395.73 69.1709 1397.07 72.4616C1398.42 75.7524 1400.38 78.2618 1402.93 79.9901C1405.49 81.7183 1408.59 82.5824 1412.24 82.5824C1415.46 82.5824 1418.18 82.0616 1420.41 81.0199C1422.65 79.9545 1424.36 78.4512 1425.52 76.5099C1426.68 74.5687 1427.26 72.2841 1427.26 69.6562L1430.53 70.0469H1412.84V57.2273H1444.2V66.8509C1444.2 73.3613 1442.81 78.9366 1440.04 83.5767C1437.3 88.2169 1433.51 91.7798 1428.68 94.2656C1423.87 96.7514 1418.35 97.9943 1412.1 97.9943C1405.16 97.9943 1399.06 96.491 1393.81 93.4844C1388.55 90.4777 1384.46 86.1927 1381.52 80.6293C1378.59 75.0421 1377.12 68.4134 1377.12 60.7429C1377.12 54.777 1378.01 49.4858 1379.78 44.8693C1381.56 40.2292 1384.03 36.2992 1387.2 33.0795C1390.4 29.8598 1394.09 27.4214 1398.28 25.7642C1402.5 24.107 1407.03 23.2784 1411.88 23.2784C1416.1 23.2784 1420.02 23.8821 1423.64 25.0895C1427.28 26.2969 1430.5 28.0014 1433.3 30.2031C1436.11 32.4048 1438.4 35.0208 1440.15 38.0511C1441.9 41.0814 1442.99 44.4077 1443.42 48.0298H1425.63ZM1516.46 24.2727V97H1501.54L1472.6 55.0256H1472.14V97H1454.56V24.2727H1469.69L1498.31 66.1761H1498.91V24.2727H1516.46Z" fill="url(#paint1_linear_100_2106)" shape-rendering="crispEdges"/>
</g>
</g>
<defs>
<filter id="filter0_d_100_2106" x="0.775391" y="19.2727" width="259.848" height="102.727" filterUnits="userSpaceOnUse" color-interpolation-filters="sRGB">
<feFlood flood-opacity="0" result="BackgroundImageFix"/>
<feColorMatrix in="SourceAlpha" type="matrix" values="0 0 0 0 0 0 0 0 0 0 0 0 0 0 0 0 0 0 127 0" result="hardAlpha"/>
<feOffset dx="10" dy="10"/>
<feGaussianBlur stdDeviation="7.5"/>
<feComposite in2="hardAlpha" operator="out"/>
<feColorMatrix type="matrix" values="0 0 0 0 1 0 0 0 0 1 0 0 0 0 1 0 0 0 0.25 0"/>
<feBlend mode="normal" in2="BackgroundImageFix" result="effect1_dropShadow_100_2106"/>
<feBlend mode="normal" in="SourceGraphic" in2="effect1_dropShadow_100_2106" result="shape"/>
</filter>
<filter id="filter1_d_100_2106" x="1143.5" y="18.2784" width="397.951" height="104.716" filterUnits="userSpaceOnUse" color-interpolation-filters="sRGB">
<feFlood flood-opacity="0" result="BackgroundImageFix"/>
<feColorMatrix in="SourceAlpha" type="matrix" values="0 0 0 0 0 0 0 0 0 0 0 0 0 0 0 0 0 0 127 0" result="hardAlpha"/>
<feOffset dx="10" dy="10"/>
<feGaussianBlur stdDeviation="7.5"/>
<feComposite in2="hardAlpha" operator="out"/>
<feColorMatrix type="matrix" values="0 0 0 0 1 0 0 0 0 1 0 0 0 0 1 0 0 0 0.25 0"/>
<feBlend mode="normal" in2="BackgroundImageFix" result="effect1_dropShadow_100_2106"/>
<feBlend mode="normal" in="SourceGraphic" in2="effect1_dropShadow_100_2106" result="shape"/>
</filter>
<linearGradient id="paint0_linear_100_2106" x1="126" y1="0" x2="126" y2="110" gradientUnits="userSpaceOnUse">
<stop offset="0.43" stop-opacity="0.9"/>
<stop offset="1" stop-color="#666666"/>
</linearGradient>
<linearGradient id="paint1_linear_100_2106" x1="1340" y1="0" x2="1340" y2="110" gradientUnits="userSpaceOnUse">
<stop offset="0.43" stop-opacity="0.9"/>
<stop offset="1" stop-color="#666666"/>
</linearGradient>
<clipPath id="clip0_100_2106">
<rect width="1542" height="123" fill="white"/>
</clipPath>
</defs>
</svg>
