<svg width="35" height="35" viewBox="0 0 35 35" fill="none" xmlns="http://www.w3.org/2000/svg">
<path d="M23.99 0H10.16C4.54879 0 0 4.54879 0 10.16V23.99C0 29.6012 4.54879 34.15 10.16 34.15H23.99C29.6012 34.15 34.15 29.6012 34.15 23.99V10.16C34.15 4.54879 29.6012 0 23.99 0Z" fill="#455A64"/>
<path d="M9.10986 25.3599L10.3599 20.72C9.35831 18.9112 9.04273 16.8019 9.47104 14.7793C9.89934 12.7566 11.0428 10.9563 12.6915 9.70873C14.3403 8.4612 16.3836 7.85018 18.4465 7.98782C20.5095 8.12545 22.4536 9.00253 23.9219 10.458C25.3903 11.9135 26.2845 13.8498 26.4403 15.9114C26.5961 17.9731 26.0031 20.0217 24.7701 21.6814C23.5372 23.341 21.747 24.5003 19.7281 24.9464C17.7093 25.3925 15.5974 25.0955 13.7799 24.1099L9.10986 25.3599ZM14.0099 22.3599L14.2999 22.53C15.7673 23.4085 17.5057 23.7193 19.1867 23.4038C20.8677 23.0883 22.375 22.1682 23.424 20.8174C24.4731 19.4666 24.9912 17.7784 24.8807 16.0716C24.7702 14.3649 24.0387 12.7576 22.8242 11.5533C21.6097 10.3491 19.9963 9.63107 18.2887 9.53497C16.5811 9.43886 14.8973 9.97129 13.5554 11.0317C12.2135 12.0921 11.3062 13.6071 11.0049 15.2907C10.7035 16.9743 11.029 18.7099 11.9199 20.1699L12.0999 20.46L11.3999 23.06L14.0099 22.3599Z" fill="white"/>
<path fill-rule="evenodd" clip-rule="evenodd" d="M20.9401 17.82C20.7713 17.6839 20.5737 17.5879 20.3623 17.5394C20.151 17.4909 19.9313 17.4911 19.7201 17.54C19.4001 17.67 19.1901 18.17 18.9901 18.42C18.9472 18.4829 18.8821 18.5273 18.8078 18.544C18.7336 18.5607 18.6557 18.5485 18.5901 18.51C17.4251 18.0512 16.4491 17.2126 15.8201 16.13C15.7892 16.1002 15.7647 16.0644 15.7479 16.0249C15.7312 15.9854 15.7225 15.9429 15.7225 15.9C15.7225 15.8571 15.7312 15.8146 15.7479 15.7751C15.7647 15.7356 15.7892 15.6998 15.8201 15.67C16.0564 15.4457 16.2289 15.1628 16.3201 14.85C16.3493 14.5021 16.2726 14.1535 16.1001 13.85C15.9652 13.43 15.7159 13.056 15.3801 12.77C15.2064 12.6933 15.0145 12.6676 14.8268 12.696C14.6391 12.7243 14.4633 12.8055 14.3201 12.93C14.0751 13.1408 13.8805 13.4038 13.7507 13.6998C13.6209 13.9957 13.5592 14.317 13.5701 14.64C13.5678 14.8257 13.5913 15.0108 13.6401 15.19C13.7547 15.613 13.9299 16.0171 14.1601 16.39C14.3249 16.673 14.5052 16.9468 14.7001 17.21C15.3396 18.0868 16.1406 18.8335 17.0601 19.41C17.5229 19.694 18.0159 19.9254 18.5301 20.1C19.0644 20.3459 19.6552 20.4426 20.2401 20.38C20.5746 20.3275 20.8914 20.1945 21.1631 19.9924C21.4349 19.7903 21.6535 19.5253 21.8 19.22C21.8776 19.0336 21.9018 18.8294 21.8701 18.63C21.8201 18.25 21.2501 18.01 20.9401 17.82Z" fill="white"/>
</svg>
