<svg width="104" height="76" viewBox="0 0 104 76" fill="none" xmlns="http://www.w3.org/2000/svg">
<path d="M0 47.7433L0.00416975 56.7156L1.84663 57.3077L1.84253 48.3354L0 47.7433Z" fill="#71433D"/>
<path d="M1.84277 48.3353L1.84688 57.3076L50.2693 9.56011L50.2652 0.591919L1.84277 48.3353Z" fill="#71433D"/>
<path d="M48.4225 0L0 47.7434L1.84253 48.3355L50.2649 0.592042L48.4225 0Z" fill="#71433D"/>
<path d="M1.83472 56.2438V57.3203L54.6625 75.2235L54.6584 74.1512L1.83472 56.2438Z" fill="#71433D"/>
<path d="M54.6587 74.1512L54.6628 75.2236L103.081 27.476L103.077 26.4037L54.6587 74.1512Z" fill="#71433D"/>
<path d="M50.253 8.50037L1.83472 56.2438L54.6584 74.1512L103.077 26.4036L50.253 8.50037Z" fill="#B5827B"/>
<path d="M3.03979 47.7434L3.0439 55.0057L54.1121 72.3293L54.108 63.357L3.03979 47.7434Z" fill="white"/>
<path d="M100.179 17.9281V26.9005L54.112 72.3294L54.1079 63.357L100.179 17.9281Z" fill="white"/>
<path d="M1.83472 48.3478V49.4202L54.6625 67.3234L54.6584 66.2511L1.83472 48.3478Z" fill="#71433D"/>
<path d="M54.6587 66.2512L54.6628 67.3236L103.081 19.5802L103.077 18.5078L54.6587 66.2512Z" fill="#71433D"/>
<path d="M50.253 0.600342L1.83472 48.3479L54.6584 66.2512L103.077 18.5077L50.253 0.600342Z" fill="#B5827B"/>
</svg>
