<svg width="125" height="200" viewBox="0 0 125 200" fill="none" xmlns="http://www.w3.org/2000/svg">
<path d="M35.9791 14.9489C35.9791 14.9489 21.0251 28.8489 26.0251 47.8489C31.0251 66.8489 23.0251 83.1819 13.0251 94.8489C3.02511 106.516 -0.609905 144.104 60.5411 144.643C121.692 145.182 115.025 105.982 105.359 93.2489C95.6921 80.5159 86.7311 75.1619 90.6921 60.8489C94.6531 46.5359 96.0421 27.1469 89.5421 17.7619C83.0421 8.37693 35.9791 14.9489 35.9791 14.9489Z" fill="#513118"/>
<path d="M99.742 125.835C99.732 127.215 99.672 128.625 99.562 130.045C98.612 134.135 97.052 139.615 95.492 145.375C93.162 154.035 90.812 163.345 90.462 169.615V169.625C90.422 170.175 90.402 170.695 90.402 171.195C90.402 174.655 90.972 179.075 91.732 183.765C91.732 183.765 91.732 183.765 91.732 183.775C92.152 186.395 92.642 189.085 93.132 191.735C71.292 202.335 45.012 201.835 23.312 189.295C23.352 188.815 23.392 188.335 23.432 187.855C25.542 179.225 27.532 169.135 27.622 159.925C27.702 150.345 25.122 138.435 23.822 126.825C23.682 125.525 23.552 124.225 23.442 122.935C29.222 117.055 41.902 113.065 55.262 111.215C75.682 108.385 97.702 110.555 99.162 118.615C99.582 120.935 99.762 123.355 99.742 125.835Z" fill="#FFCBA6"/>
<path d="M5.78711 127.056L112.336 125.672C112.336 125.672 111.878 121.087 106.701 107.117C101.525 93.1479 86.9611 92.9369 79.2481 83.4819C76.4731 80.0799 75.4121 79.3609 74.6651 75.2089C73.3591 67.8289 74.3521 61.0119 74.3521 61.0119L53.6741 54.8049C53.6741 54.8049 54.1441 65.9869 50.9041 75.5049C49.4361 79.8099 46.8041 80.1909 43.4001 82.6019C38.3421 86.1779 21.5241 92.8859 14.2601 98.5399C7.01112 104.174 5.78711 127.056 5.78711 127.056Z" fill="#FFCBA6"/>
<path d="M45.596 38.2C45.596 38.2 37.405 30.776 31.504 34.991C25.603 39.206 26.986 49.402 31.869 52.367C36.752 55.332 46.444 50.745 46.444 50.745L45.596 38.2Z" fill="#FFCBA6"/>
<path d="M80.612 33.513C80.612 33.513 90.958 29.623 94.896 35.713C98.832 41.803 93.794 50.776 88.162 51.736C82.533 52.698 75.208 44.866 75.208 44.866L80.612 33.513Z" fill="#EA9F6D"/>
<path d="M74.1162 70.6131C68.9512 74.4401 59.9392 79.4861 49.3972 78.3411C49.9862 77.6191 50.4962 76.7191 50.9072 75.5071C54.1452 65.9851 53.6752 54.8071 53.6752 54.8071L74.3552 61.0121C74.3552 61.0121 73.7392 65.2301 74.1162 70.6131Z" fill="#EA9F6D"/>
<path d="M85.697 16.583C85.697 16.583 89.852 48.273 85.752 57.027C81.652 65.779 75.426 69.133 68.491 69.942C59.435 70.997 47.464 64.872 42.79 55.805C38.116 46.739 38.391 17.179 38.391 17.179C38.391 17.179 55.941 8.54098 63.113 8.48998C70.284 8.43898 85.697 16.583 85.697 16.583Z" fill="#FFCBA6"/>
<path d="M69.8872 38.3181C69.8852 37.3261 68.3452 37.3971 68.3482 38.3871C68.3602 42.1011 73.1522 52.9251 67.0512 53.4501C66.0652 53.5351 66.1272 55.0761 67.1202 54.9891C75.2552 54.2891 69.9032 42.9831 69.8872 38.3181Z" fill="#EA9F6D"/>
<path d="M38.6181 46.7441C38.2311 46.0821 37.1421 45.9161 36.9631 45.1291C36.8251 44.5101 37.4841 43.8521 37.6101 43.2571C37.7901 42.4021 37.7241 41.5801 37.3651 40.7801C36.0781 37.9161 32.2421 38.9401 31.0351 41.2451C30.4611 42.3431 32.1991 43.1511 32.7691 42.0611C33.1991 41.2381 33.9851 40.8131 34.9051 40.9841C36.2351 41.2291 35.7371 42.9231 35.3301 43.6941C34.9211 44.4731 34.9621 45.4231 35.3281 46.2071C35.6251 46.8481 37.1451 47.5561 37.0041 48.1521C36.7131 49.3581 38.6001 49.6921 38.8871 48.4961C39.0421 47.8351 38.9561 47.3251 38.6181 46.7441Z" fill="#EA9F6D"/>
<path d="M56.7271 30.8249C55.6421 31.9039 54.0991 32.2729 52.6571 32.6299C50.3961 33.1919 51.4871 36.6369 53.7431 36.0769C55.8261 35.5599 57.8121 34.8399 59.3631 33.2969C61.0201 31.6469 58.3721 29.1859 56.7271 30.8249Z" fill="#513118"/>
<path d="M79.6171 33.492C78.1001 33.289 76.8671 32.29 75.7041 31.365C73.8821 29.913 71.8151 32.877 73.6331 34.324C75.3111 35.662 77.0921 36.798 79.2611 37.088C81.5791 37.397 81.9171 33.799 79.6171 33.492Z" fill="#513118"/>
<path d="M42.4302 12.773C42.4302 12.773 51.9712 24.438 62.2942 27.797C74.9452 31.914 87.9852 32.412 87.9852 32.412C87.9852 32.412 99.3922 12.159 71.4242 2.08305C48.5092 -6.17195 42.4302 12.773 42.4302 12.773Z" fill="#513118"/>
<path d="M54.9862 13.7799C54.9862 13.7799 56.1842 22.0829 53.4042 28.8619C47.6662 42.8539 42.6142 43.6969 41.8942 44.1499C41.8942 44.1499 30.7862 28.6499 34.5012 17.7619C38.3762 6.40492 54.9862 13.7799 54.9862 13.7799Z" fill="#513118"/>
<path d="M57.1491 43.001C57.1491 43.991 56.4781 44.793 55.6501 44.793C54.8221 44.793 54.1511 43.991 54.1511 43.001C54.1511 42.011 54.8221 41.209 55.6501 41.209C56.4781 41.209 57.1491 42.011 57.1491 43.001Z" fill="#513118"/>
<path d="M79.3361 43.001C79.3361 43.991 78.6651 44.793 77.8371 44.793C77.0091 44.793 76.3381 43.991 76.3381 43.001C76.3381 42.011 77.0091 41.209 77.8371 41.209C78.6651 41.209 79.3361 42.011 79.3361 43.001Z" fill="#513118"/>
<path d="M65.3432 59.4351C62.9812 59.8691 60.5992 58.9221 59.9992 56.4311C59.7432 55.3711 61.3522 54.7901 61.6092 55.8621C62.0412 57.6541 63.5462 58.0371 65.2072 57.7331C66.2902 57.5341 66.4182 59.2381 65.3432 59.4351Z" fill="#EA9F6D"/>
<path d="M5.7871 127.056C5.7871 127.056 -2.7999 163.409 0.9461 169.462C4.6921 175.515 16.1491 179.515 30.9201 135.515L34.9411 116.148L5.7871 127.056Z" fill="#FFCBA6"/>
<path d="M31.6822 131.835L30.9222 135.515C29.7322 139.055 28.5622 142.285 27.4222 145.225C26.2822 148.165 25.1622 150.815 24.0722 153.205L23.9922 153.865C16.6422 148.695 6.78222 139.265 3.77222 136.345C4.57222 132.425 5.27222 129.315 5.60222 127.895L30.4422 124.785C30.4422 124.785 31.0322 127.725 31.6822 131.835Z" fill="#EA9F6D"/>
<path d="M24.0722 153.205L20.0521 187.295C17.8821 185.895 15.7721 184.365 13.7221 182.705C8.82214 178.745 4.56215 174.285 0.952148 169.455L24.0722 153.205Z" fill="#FFCBA6"/>
<path d="M112.336 125.672C112.336 125.672 119.691 151.515 116.358 161.515C113.025 171.515 98.0252 169.848 90.6912 133.182L93.0242 121.182L112.336 125.672Z" fill="#FFCBA6"/>
<path d="M124.142 163.545C122.452 166.325 120.562 169.015 118.462 171.605C116.422 174.125 114.252 176.475 111.972 178.645L97.4021 154.635L115.672 140.225L124.142 163.545Z" fill="#FFCBA6"/>
<path d="M113.312 129.375C113.312 129.385 113.312 129.385 113.312 129.385C113.142 129.945 106.982 150.635 99.2121 157.985C98.6021 156.975 98.0021 155.865 97.4121 154.655L97.4021 154.635C94.8821 149.465 92.5421 142.445 90.6921 133.185L92.6121 123.295L113.312 129.375Z" fill="#EA9F6D"/>
<path d="M99.5621 130.045C99.5621 130.045 101.102 135.935 95.9221 151.325C90.9021 166.235 89.0521 174.025 93.9521 191.335C71.7321 202.455 44.7421 201.975 22.6421 188.895C24.6121 178.025 27.1321 163.875 27.6221 159.925C28.4421 153.265 24.6921 135.265 24.6921 135.265C24.6921 135.265 11.3621 136.515 2.86206 132.685C2.86206 132.685 5.02206 113.845 6.69206 107.515C8.36206 101.185 16.6221 93.0652 33.7421 87.7852C33.7421 87.7852 58.2121 113.705 90.2921 91.6052C90.2921 91.6052 100.442 94.7952 104.942 100.525C109.442 106.265 114.942 129.265 114.942 129.265C114.942 129.265 103.182 130.075 99.5621 130.045Z" fill="#FF84EF"/>
<path d="M24.6921 135.265C24.6921 135.265 19.2821 135.775 13.1521 135.145C15.6221 124.645 24.3621 108.125 24.6821 107.535C22.4421 116.545 24.6921 135.265 24.6921 135.265Z" fill="#D184EF"/>
<path d="M49.397 154.63C58.606 150.083 71.442 147.515 79.442 157.015C87.442 166.515 24.353 166.996 49.397 154.63Z" fill="#D184EF"/>
<path d="M99.5621 130.045C99.5621 130.045 98.1921 113.888 93.6921 107.535C93.6921 107.535 106.525 123.346 108.359 129.681L99.5621 130.045Z" fill="#D184EF"/>
<path d="M61.7191 105.37C42.5131 105.37 31.4001 91.383 31.2871 91.237L32.0761 90.623C32.1881 90.768 43.5001 105.005 63.0121 104.349C82.5721 103.698 90.2471 95.5921 90.3231 95.5101L91.0591 96.188C90.7401 96.535 83.0201 104.683 63.0451 105.349C62.6001 105.363 62.1571 105.37 61.7191 105.37Z" fill="#D184EF"/>
</svg>
