<svg width="243" height="210" viewBox="0 0 243 210" fill="none" xmlns="http://www.w3.org/2000/svg">
<path d="M72.8886 113.553C72.8886 113.553 70.5427 117.54 67.8697 122.834L53.7327 140.644L60.6606 147.154C67.1606 161.644 85.3886 151.644 97.3886 126.227C109.389 100.81 72.8886 113.553 72.8886 113.553Z" fill="#FFCBA6"/>
<path d="M189.155 140.894L168.78 110.359C168.78 110.359 133.499 100.81 145.499 126.227C157.499 151.644 175.727 161.644 182.227 147.154C182.446 146.665 182.575 146.084 182.636 145.437L182.68 145.56L189.155 140.894Z" fill="#FFCBA6"/>
<path d="M210.959 122.834C210.959 122.834 210.263 117.632 213.345 113.187C216.424 108.741 216.279 109.089 218.314 104.208C220.349 99.325 221.23 98.823 223.141 100.489C223.589 100.88 222.479 104.533 222.005 106.156C221.046 109.438 219.243 112.782 222.208 111.561C225.173 110.341 231.366 99.414 233.661 100.781C235.957 102.147 234.357 103.527 232.644 105.678C230.927 107.827 228.604 110.953 228.604 110.953C228.604 110.953 237.701 102.873 239.097 103.455C240.49 104.036 240.811 106.217 238.891 107.872C236.974 109.529 231.016 114.001 231.016 114.001C231.016 114.001 239.851 109.5 240.896 109.935C241.944 110.372 243.891 111.592 242.262 112.55C240.635 113.51 233.138 117.752 233.138 117.752C233.138 117.752 239.415 115.458 240.723 117.231C242.028 119.003 240.693 119.264 237.09 121.036C233.486 122.809 219.126 133.197 219.126 133.197L210.959 122.834Z" fill="#FFCBA6"/>
<path d="M210.959 122.834L179.317 141.244L159.185 146.436C159.185 146.436 174.445 161.941 184.253 162.918C194.061 163.894 219.127 133.198 219.127 133.198L210.959 122.834Z" fill="#FFCBA6"/>
<path d="M31.9287 122.834C31.9287 122.834 32.6247 117.632 29.5427 113.187C26.4637 108.741 26.6087 109.089 24.5737 104.208C22.5387 99.325 21.6577 98.823 19.7467 100.489C19.2987 100.88 20.4087 104.533 20.8827 106.156C21.8417 109.438 23.6447 112.782 20.6797 111.561C17.7147 110.341 11.5217 99.414 9.22669 100.781C6.93069 102.147 8.53069 103.527 10.2437 105.678C11.9607 107.827 14.2837 110.953 14.2837 110.953C14.2837 110.953 5.18669 102.873 3.79069 103.455C2.39769 104.036 2.07668 106.217 3.99668 107.872C5.91368 109.529 11.8717 114.001 11.8717 114.001C11.8717 114.001 3.03671 109.5 1.99171 109.935C0.943709 110.372 -1.00332 111.592 0.625681 112.55C2.25168 113.51 9.7497 117.752 9.7497 117.752C9.7497 117.752 3.47268 115.458 2.16468 117.231C0.859682 119.003 2.19471 119.264 5.79771 121.036C9.40171 122.809 23.7617 133.197 23.7617 133.197L31.9287 122.834Z" fill="#FFCBA6"/>
<path d="M31.9287 122.834L63.5707 141.244L83.7028 146.436C83.7028 146.436 68.4427 161.941 58.6347 162.918C48.8267 163.894 23.7607 133.198 23.7607 133.198L31.9287 122.834Z" fill="#FFCBA6"/>
<path d="M156.237 198.944C134.617 211.844 107.827 212.834 85.4066 201.914C86.1066 198.094 86.8766 194.034 87.5066 190.154C87.5066 190.144 87.5066 190.144 87.5066 190.144C88.2766 185.454 88.8367 181.034 88.8367 177.574C88.8367 177.074 88.8166 176.554 88.7866 176.004V175.994C88.4266 169.724 86.0766 160.414 83.7466 151.754C82.1866 145.994 80.6367 140.514 79.6767 136.424C79.3667 132.444 79.4166 128.614 80.0766 124.994C81.5366 116.934 103.557 114.764 123.977 117.594C137.337 119.444 150.017 123.434 155.797 129.314C154.727 142.114 151.527 155.654 151.627 166.304C151.707 175.514 153.697 185.604 155.807 194.234C155.937 195.844 156.077 197.424 156.237 198.944Z" fill="#FFCBA6"/>
<path d="M173.453 133.434L66.9038 132.05C66.9038 132.05 67.3618 127.465 72.5388 113.495C77.7148 99.5251 92.2788 99.3151 99.9918 89.8601C102.767 86.4581 103.828 85.7391 104.575 81.5871C105.881 74.2071 104.888 67.3901 104.888 67.3901L125.566 61.1831C125.566 61.1831 125.096 72.3651 128.336 81.8831C129.805 86.1881 132.436 86.5691 135.841 88.9801C140.899 92.5561 157.717 99.2631 164.981 104.918C172.229 110.553 173.453 133.434 173.453 133.434Z" fill="#FFCBA6"/>
<path d="M133.644 44.5791C133.644 44.5791 141.834 37.1551 147.736 41.3701C153.637 45.5851 152.254 55.7811 147.371 58.7461C142.488 61.7111 132.796 57.1241 132.796 57.1241L133.644 44.5791Z" fill="#FFCBA6"/>
<path d="M98.6268 39.8912C98.6268 39.8912 88.2808 36.0012 84.3428 42.0912C80.4068 48.1812 85.4448 57.1542 91.0768 58.1142C96.7058 59.0762 104.032 51.2442 104.032 51.2442L98.6268 39.8912Z" fill="#EA9F6D"/>
<path d="M105.123 76.9921C110.288 80.8191 119.3 85.865 129.842 84.72C129.253 83.998 128.743 83.098 128.332 81.886C125.094 72.364 125.564 61.186 125.564 61.186L104.884 67.391C104.884 67.391 105.501 71.6081 105.123 76.9921Z" fill="#EA9F6D"/>
<path d="M93.5428 22.9621C93.5428 22.9621 89.3878 54.6521 93.4878 63.4061C97.5878 72.1581 103.814 75.5121 110.749 76.3211C119.805 77.3761 131.776 71.2511 136.45 62.1841C141.124 53.1181 140.849 23.5581 140.849 23.5581C140.849 23.5581 123.299 14.9201 116.127 14.8691C108.956 14.8181 93.5428 22.9621 93.5428 22.9621Z" fill="#FFCBA6"/>
<path d="M109.352 44.696C109.354 43.704 110.894 43.775 110.891 44.765C110.879 48.479 106.087 59.303 112.188 59.828C113.174 59.913 113.112 61.454 112.119 61.367C103.985 60.668 109.336 49.361 109.352 44.696Z" fill="#EA9F6D"/>
<path d="M140.622 53.122C141.009 52.46 142.098 52.294 142.277 51.507C142.414 50.887 141.756 50.23 141.63 49.635C141.45 48.78 141.516 47.958 141.875 47.158C143.162 44.294 146.998 45.318 148.205 47.623C148.779 48.721 147.041 49.529 146.471 48.439C146.041 47.616 145.255 47.191 144.335 47.362C143.005 47.607 143.503 49.301 143.91 50.072C144.319 50.851 144.279 51.801 143.912 52.585C143.615 53.226 142.095 53.934 142.236 54.53C142.527 55.736 140.64 56.07 140.353 54.874C140.197 54.214 140.284 53.704 140.622 53.122Z" fill="#EA9F6D"/>
<path d="M122.513 40.3412C123.598 41.4202 125.141 41.7892 126.583 42.1462C128.844 42.7082 127.753 46.1532 125.497 45.5932C123.414 45.0762 121.428 44.3562 119.877 42.8132C118.22 41.1632 120.868 38.7012 122.513 40.3412Z" fill="#513118"/>
<path d="M99.6226 39.5261C101.14 39.3231 102.373 38.3241 103.536 37.3991C105.359 35.9471 107.425 38.9111 105.607 40.3581C103.929 41.6961 102.148 42.8321 99.9786 43.1221C97.6606 43.4301 97.3226 39.8321 99.6226 39.5261Z" fill="#513118"/>
<path d="M142.209 24.2691C142.209 24.2691 124.496 28.5501 114.173 31.9091C101.522 36.0261 91.2537 38.7911 91.2537 38.7911C91.2537 38.7911 69.7256 0.833123 112.897 2.56012C147.173 3.93112 142.209 24.2691 142.209 24.2691Z" fill="#513118"/>
<path d="M124.253 20.1581C124.253 20.1581 123.055 28.4611 125.835 35.2401C131.573 49.2321 136.625 50.0751 137.345 50.5281C137.345 50.5281 148.453 35.0281 144.738 24.1401C140.863 12.7831 124.253 20.1581 124.253 20.1581Z" fill="#513118"/>
<path d="M122.091 49.3801C122.091 50.3701 122.762 51.1731 123.59 51.1731C124.418 51.1731 125.089 50.3701 125.089 49.3801C125.089 48.3901 124.418 47.5881 123.59 47.5881C122.762 47.5871 122.091 48.3901 122.091 49.3801Z" fill="#513118"/>
<path d="M99.9038 49.3801C99.9038 50.3701 100.575 51.1731 101.403 51.1731C102.231 51.1731 102.902 50.3701 102.902 49.3801C102.902 48.3901 102.231 47.5881 101.403 47.5881C100.575 47.5871 99.9038 48.3901 99.9038 49.3801Z" fill="#513118"/>
<path d="M112.881 64.9911L118.074 61.1851C118.074 61.1851 120.11 65.2861 118.074 66.5181C114.977 68.3941 112.881 64.9911 112.881 64.9911Z" fill="white"/>
<path d="M131.196 6.18711C131.196 6.18711 120.227 -1.10589 114.977 0.144107C109.727 1.39411 118.074 7.64411 118.074 7.64411L131.196 6.18711Z" fill="#513118"/>
<path d="M142.209 20.1931C142.209 20.1931 143.393 8.56009 139.393 6.22709C135.393 3.89409 134.747 12.3941 134.747 12.3941L142.209 20.1931Z" fill="#513118"/>
<path d="M142.209 20.1931C142.209 20.1931 146.976 22.5191 147.476 25.7691C147.976 29.0191 141.601 25.7691 141.601 25.7691L142.209 20.1931Z" fill="#513118"/>
<path d="M215.977 136.924C215.977 136.924 197.307 159.734 192.517 162.944C190.807 164.084 188.677 164.954 186.157 165.164C181.637 165.544 175.877 163.834 168.977 157.894C158.227 148.644 155.227 147.154 155.227 147.154L157.727 198.034C134.017 212.944 103.667 213.214 79.7266 198.844V198.834C80.5266 190.994 83.0966 165.554 83.7066 160.394C84.4166 154.274 83.7036 149.203 83.7036 149.203C83.7036 149.203 66.2266 167.394 55.7266 165.144C53.5266 164.674 50.9666 163.144 48.3066 161.034C38.2866 153.074 26.7466 136.734 26.7466 136.734C26.7466 136.734 31.7366 127.024 37.7266 126.214L43.8966 128.724L55.4766 133.434C55.4766 133.434 59.5866 129.894 65.4066 120.394C71.2266 110.894 70.0066 105.584 99.9866 89.8641C99.9866 89.8641 112.287 103.404 135.837 88.9841C135.837 88.9841 162.397 99.5641 164.727 101.224C167.057 102.894 186.977 134.984 186.977 134.984L192.457 132.284L207.307 124.964C207.307 124.964 215.717 129.954 215.977 136.924Z" fill="#455AFF"/>
<path opacity="0.6" d="M186.807 165.084C186.597 165.124 186.377 165.144 186.157 165.164C181.637 165.544 175.877 163.834 168.977 157.894C158.567 148.934 155.427 147.254 155.237 147.164C155.227 147.154 155.227 147.154 155.227 147.154L156.237 119.564C156.237 119.564 179.977 149.334 184.727 156.894C186.537 159.774 186.967 162.644 186.807 165.084Z" fill="#455AFF"/>
<path opacity="0.6" d="M83.7067 149.204C83.7067 149.204 83.6867 149.224 83.6667 149.254C82.6867 150.254 65.9167 167.324 55.7267 165.144C55.3467 165.064 54.9567 164.954 54.5667 164.814C59.3367 152.694 82.9467 125.564 82.9467 125.564L83.7067 149.204Z" fill="#455AFF"/>
<path d="M141.206 147.671C144.103 135.403 136.506 123.109 124.238 120.212C111.97 117.315 99.6767 124.912 96.7799 137.18C93.883 149.448 101.48 161.742 113.748 164.639C126.016 167.536 138.31 159.939 141.206 147.671Z" fill="#4586FF"/>
<path opacity="0.6" d="M128.06 153.84C119.94 161.6 105.895 174.227 99.8106 182.227C93.7266 190.227 130.393 186.227 137.727 171.227C145.06 156.227 151.694 131.254 128.06 153.84Z" fill="#455AFF"/>
<path d="M115.44 97.6982C104.568 97.6982 98.9036 90.9102 98.8186 90.8042L101.151 88.9162C101.613 89.4802 112.706 102.541 135.007 87.7322L136.667 90.2322C128.208 95.8492 121.114 97.6982 115.44 97.6982Z" fill="#4586FF"/>
</svg>
