<svg width="657" height="997" viewBox="0 0 657 997" fill="none" xmlns="http://www.w3.org/2000/svg">
<g filter="url(#filter0_d_105_8)">
<path d="M442.383 130.182H175.184C151.806 130.182 132.855 149.133 132.855 172.51V784.6C132.855 807.977 151.806 826.928 175.184 826.928H442.383C465.76 826.928 484.711 807.977 484.711 784.6V172.51C484.711 149.133 465.76 130.182 442.383 130.182Z" fill="#455A64"/>
<path d="M479.149 784.266L479.149 172.861C479.149 152.352 462.524 135.727 442.016 135.727L175.518 135.727C155.01 135.727 138.384 152.352 138.384 172.861L138.384 784.266C138.384 804.774 155.01 821.399 175.518 821.399H442.016C462.524 821.399 479.149 804.774 479.149 784.266Z" fill="#263238"/>
<path d="M283.51 157.677C282.473 157.677 281.479 157.265 280.746 156.532C280.013 155.799 279.601 154.805 279.601 153.768C279.601 152.731 280.013 151.737 280.746 151.004C281.479 150.271 282.473 149.859 283.51 149.859H333.823C334.86 149.859 335.854 150.271 336.587 151.004C337.32 151.737 337.732 152.731 337.732 153.768C337.732 154.805 337.32 155.799 336.587 156.532C335.854 157.265 334.86 157.677 333.823 157.677H283.51Z" fill="#455A64"/>
<path d="M256.533 157.677C255.76 157.677 255.004 157.447 254.361 157.018C253.718 156.588 253.217 155.978 252.922 155.264C252.626 154.549 252.548 153.764 252.699 153.005C252.85 152.247 253.222 151.551 253.769 151.004C254.316 150.457 255.012 150.085 255.77 149.934C256.528 149.783 257.314 149.861 258.029 150.157C258.743 150.453 259.353 150.954 259.783 151.596C260.212 152.239 260.442 152.995 260.442 153.768C260.437 154.803 260.024 155.795 259.292 156.527C258.56 157.259 257.568 157.672 256.533 157.677Z" fill="#455A64"/>
<path d="M270.932 157.677C270.159 157.677 269.403 157.447 268.76 157.018C268.118 156.588 267.617 155.978 267.321 155.264C267.025 154.549 266.947 153.764 267.098 153.005C267.249 152.247 267.621 151.551 268.168 151.004C268.715 150.457 269.411 150.085 270.169 149.934C270.928 149.783 271.714 149.861 272.428 150.157C273.142 150.453 273.752 150.954 274.182 151.596C274.611 152.239 274.841 152.995 274.841 153.768C274.841 154.805 274.429 155.799 273.696 156.532C272.963 157.265 271.969 157.677 270.932 157.677Z" fill="#455A64"/>
<path d="M361.034 157.677C360.261 157.677 359.505 157.447 358.862 157.018C358.22 156.588 357.719 155.978 357.423 155.264C357.127 154.549 357.05 153.764 357.2 153.005C357.351 152.247 357.723 151.551 358.27 151.004C358.817 150.457 359.513 150.085 360.271 149.934C361.03 149.783 361.816 149.861 362.53 150.157C363.244 150.453 363.855 150.954 364.284 151.596C364.714 152.239 364.943 152.995 364.943 153.768C364.938 154.803 364.525 155.795 363.793 156.527C363.061 157.259 362.069 157.672 361.034 157.677Z" fill="#455A64"/>
<path d="M346.635 157.677C345.862 157.677 345.106 157.447 344.463 157.018C343.821 156.588 343.32 155.978 343.024 155.264C342.728 154.549 342.651 153.764 342.801 153.005C342.952 152.247 343.325 151.551 343.871 151.004C344.418 150.457 345.114 150.085 345.873 149.934C346.631 149.783 347.417 149.861 348.131 150.157C348.845 150.453 349.456 150.954 349.885 151.596C350.315 152.239 350.544 152.995 350.544 153.768C350.539 154.803 350.126 155.795 349.394 156.527C348.662 157.259 347.67 157.672 346.635 157.677Z" fill="#455A64"/>
<path d="M447.06 140.421H386.14C383.911 140.417 381.741 141.137 379.955 142.471C378.169 143.805 376.863 145.682 376.235 147.821L372.359 161.184C371.661 163.591 370.201 165.707 368.198 167.213C366.195 168.719 363.757 169.534 361.251 169.537H256.249C253.743 169.534 251.305 168.719 249.302 167.213C247.299 165.707 245.839 163.591 245.141 161.184L241.265 147.821C240.64 145.673 239.335 143.786 237.546 142.442C235.757 141.099 233.58 140.372 231.343 140.371H184.037C179.084 140.371 174.179 141.347 169.603 143.242C165.027 145.138 160.869 147.916 157.366 151.418C153.864 154.921 151.085 159.079 149.19 163.655C147.294 168.231 146.319 173.136 146.319 178.089V786.655C146.319 793.415 149.004 799.899 153.785 804.679C158.565 809.459 165.049 812.145 171.809 812.145H448.848C454.784 812.145 460.478 809.787 464.675 805.589C468.873 801.391 471.231 795.698 471.231 789.762V164.525C471.214 158.126 468.659 151.996 464.128 147.477C459.597 142.959 453.459 140.421 447.06 140.421Z" fill="#EBEBEB"/>
<path d="M460.357 151.663C456.854 148.1 452.675 145.271 448.066 143.341C443.458 141.411 438.51 140.418 433.513 140.421H378.39L369.937 169.537H247.63L239.161 140.388H171.058C164.519 140.388 158.248 142.985 153.624 147.609C149 152.233 146.403 158.504 146.403 165.043V605.665L147.371 605.782C179.109 609.223 209.845 589.312 227.234 562.619C244.623 535.925 250.67 503.519 253.743 471.882C256.817 440.244 257.184 408.022 264.635 377.036C277.509 324.517 309.721 278.789 354.837 248.981C376.937 234.549 401.609 224.243 422.739 208.34C441.298 194.275 457.25 174.247 460.357 151.663Z" fill="#F5F5F5"/>
<path d="M471.231 796.861V601.907C446.17 604.672 422.098 613.245 400.93 626.943C379.762 640.642 362.081 659.088 349.291 680.817C326.623 720.089 322.13 769.249 336.613 812.145H455.98C460.028 812.136 463.907 810.522 466.766 807.657C469.626 804.791 471.231 800.909 471.231 796.861Z" fill="#FAFAFA"/>
<path d="M485.213 361.701H484.695V281.688H485.213C485.687 281.688 486.141 281.877 486.476 282.212C486.812 282.547 487 283.002 487 283.476V359.914C487 360.388 486.812 360.842 486.476 361.178C486.141 361.513 485.687 361.701 485.213 361.701Z" fill="#455A64"/>
<path d="M132.237 330.965H132.855V381.679H132.237C131.763 381.679 131.309 381.491 130.973 381.156C130.638 380.821 130.45 380.366 130.45 379.892V332.753C130.45 332.279 130.638 331.824 130.973 331.489C131.309 331.154 131.763 330.965 132.237 330.965Z" fill="#455A64"/>
<path d="M132.237 264.75H132.855V315.447H132.237C131.763 315.447 131.309 315.259 130.973 314.924C130.638 314.589 130.45 314.134 130.45 313.66V266.521C130.454 266.05 130.645 265.6 130.979 265.268C131.314 264.936 131.766 264.75 132.237 264.75Z" fill="#455A64"/>
<path d="M132.371 215.022H132.855V238.592H132.371C131.95 238.592 131.546 238.424 131.249 238.127C130.951 237.829 130.784 237.426 130.784 237.005V216.592C130.788 216.174 130.957 215.775 131.255 215.481C131.552 215.187 131.953 215.022 132.371 215.022Z" fill="#455A64"/>
<path d="M394.777 163.089H392.354V166.48H394.777V163.089Z" fill="#263238"/>
<path d="M398.719 161.586H396.296V166.48H398.719V161.586Z" fill="#263238"/>
<path d="M402.644 160.45H400.222V166.48H402.644V160.45Z" fill="#263238"/>
<path d="M406.586 158.261H404.164V166.48H406.586V158.261Z" fill="#263238"/>
<path d="M442.249 166.647H430.122C429.892 166.647 429.671 166.555 429.508 166.393C429.345 166.23 429.254 166.009 429.254 165.778V159.748C429.253 159.521 429.343 159.302 429.502 159.14C429.661 158.977 429.878 158.884 430.105 158.88H442.249C442.304 158.864 442.362 158.864 442.416 158.88C442.433 158.934 442.433 158.992 442.416 159.047V161.185H443.719C443.749 161.182 443.779 161.186 443.808 161.196C443.836 161.206 443.862 161.222 443.884 161.242C443.906 161.262 443.923 161.287 443.935 161.315C443.947 161.342 443.953 161.372 443.953 161.402V164.308C443.953 164.338 443.947 164.368 443.935 164.396C443.923 164.423 443.906 164.448 443.884 164.468C443.862 164.489 443.836 164.504 443.808 164.514C443.779 164.524 443.749 164.528 443.719 164.526H442.416V166.513C442.402 166.548 442.38 166.579 442.35 166.602C442.321 166.626 442.286 166.641 442.249 166.647ZM442.032 159.331H430.105C430.051 159.33 429.998 159.341 429.948 159.363C429.898 159.384 429.853 159.415 429.816 159.454C429.778 159.493 429.749 159.539 429.73 159.59C429.711 159.64 429.702 159.694 429.705 159.748V165.778C429.704 165.891 429.748 165.999 429.826 166.08C429.904 166.161 430.01 166.208 430.122 166.213H442.032V164.225C442.032 164.167 442.055 164.112 442.096 164.071C442.137 164.031 442.192 164.008 442.249 164.008H443.552V161.535H442.249C442.192 161.535 442.137 161.513 442.096 161.472C442.055 161.431 442.032 161.376 442.032 161.318V159.331Z" fill="#263238"/>
<path d="M430.69 165.227V160.316H441.047V162.538V163.005V165.227H430.69Z" fill="#263238"/>
<path d="M418.146 166.196C418.146 165.961 418.052 165.736 417.886 165.57C417.72 165.404 417.495 165.31 417.26 165.31C417.143 165.308 417.027 165.33 416.919 165.373C416.81 165.417 416.712 165.482 416.629 165.565C416.547 165.647 416.481 165.746 416.438 165.854C416.394 165.963 416.373 166.079 416.375 166.196C416.375 166.431 416.468 166.656 416.634 166.822C416.8 166.988 417.025 167.081 417.26 167.081C417.495 167.081 417.72 166.988 417.886 166.822C418.052 166.656 418.146 166.431 418.146 166.196Z" fill="#263238"/>
<path d="M414.237 164.058L415.356 165.177C415.86 164.676 416.541 164.395 417.252 164.395C417.962 164.395 418.644 164.676 419.148 165.177L420.284 164.058C419.887 163.66 419.416 163.344 418.897 163.129C418.378 162.914 417.822 162.804 417.26 162.805C416.698 162.8 416.14 162.909 415.621 163.124C415.102 163.339 414.631 163.657 414.237 164.058Z" fill="#263238"/>
<path d="M417.26 160.283C416.366 160.275 415.48 160.447 414.653 160.789C413.827 161.13 413.078 161.634 412.449 162.27L413.585 163.406C414.064 162.918 414.636 162.53 415.267 162.266C415.899 162.003 416.576 161.868 417.26 161.869C417.944 161.871 418.62 162.008 419.251 162.272C419.881 162.535 420.454 162.921 420.935 163.406L422.054 162.27C421.428 161.636 420.681 161.133 419.858 160.792C419.035 160.451 418.152 160.277 417.26 160.283Z" fill="#263238"/>
<path d="M410.612 160.433L411.731 161.569C412.456 160.843 413.316 160.267 414.263 159.874C415.211 159.481 416.226 159.279 417.252 159.279C418.277 159.279 419.293 159.481 420.24 159.874C421.187 160.267 422.048 160.843 422.772 161.569L423.908 160.433C423.034 159.55 421.993 158.849 420.846 158.371C419.7 157.893 418.469 157.646 417.227 157.646C415.984 157.646 414.754 157.893 413.607 158.371C412.46 158.849 411.419 159.55 410.545 160.433H410.612Z" fill="#263238"/>
<path d="M385.235 418.789C394.163 396.834 383.604 371.799 361.649 362.871C339.695 353.943 314.66 364.503 305.732 386.457C296.804 408.411 307.364 433.446 329.318 442.375C351.272 451.303 376.307 440.743 385.235 418.789Z" fill="#F5F5F5"/>
<path d="M193.959 316.767C193.959 305.859 199.672 299.345 207.607 299.345C215.541 299.345 221.287 305.859 221.287 316.767C221.287 327.675 215.524 334.173 207.607 334.173C199.689 334.173 193.959 327.675 193.959 316.767ZM217.679 316.767C217.679 307.613 213.57 302.568 207.657 302.568C201.743 302.568 197.634 307.58 197.634 316.767C197.634 325.954 201.743 330.949 207.657 330.949C213.57 330.949 217.679 325.904 217.679 316.767Z" fill="#263238"/>
<path d="M251.037 316.533C251.037 328.226 244.673 334.239 235.385 334.239C232.562 334.363 229.757 333.723 227.267 332.385L228.687 329.546C230.704 330.742 233.026 331.322 235.369 331.216C242.752 331.216 247.496 326.472 247.496 317.168C247.496 316.383 247.496 315.414 247.346 314.378C245.675 318.153 241.633 320.258 236.889 320.258C230.09 320.258 225.346 316.249 225.346 309.985C225.346 303.721 230.357 299.461 237.039 299.461C246.093 299.345 251.037 305.659 251.037 316.533ZM246.193 309.734C246.193 305.976 243.069 302.401 237.139 302.401C232.212 302.401 228.787 305.291 228.787 309.835C228.787 314.378 232.128 317.218 237.39 317.218C242.652 317.218 246.226 313.927 246.226 309.668L246.193 309.734Z" fill="#263238"/>
<path d="M256.249 310.603C256.242 310.257 256.305 309.914 256.433 309.593C256.561 309.272 256.752 308.98 256.995 308.734C257.238 308.488 257.528 308.293 257.847 308.161C258.167 308.028 258.509 307.962 258.855 307.964C259.555 307.964 260.226 308.242 260.721 308.737C261.216 309.232 261.494 309.903 261.494 310.603C261.494 311.308 261.218 311.984 260.724 312.487C260.231 312.99 259.559 313.279 258.855 313.292C258.153 313.279 257.486 312.989 256.997 312.485C256.509 311.981 256.24 311.305 256.249 310.603ZM256.249 331.433C256.242 331.088 256.305 330.744 256.433 330.423C256.561 330.102 256.752 329.81 256.995 329.564C257.238 329.318 257.528 329.123 257.847 328.991C258.167 328.859 258.509 328.792 258.855 328.794C259.555 328.794 260.226 329.072 260.721 329.567C261.216 330.062 261.494 330.733 261.494 331.433C261.499 332.139 261.224 332.818 260.729 333.322C260.235 333.826 259.561 334.114 258.855 334.123C258.507 334.118 258.163 334.045 257.843 333.907C257.524 333.77 257.235 333.57 256.992 333.32C256.75 333.07 256.56 332.775 256.432 332.451C256.305 332.127 256.242 331.781 256.249 331.433Z" fill="#263238"/>
<path d="M266.489 316.767C266.489 305.859 272.218 299.345 280.136 299.345C288.054 299.345 293.833 305.859 293.833 316.767C293.833 327.675 288.07 334.173 280.136 334.173C272.201 334.173 266.489 327.675 266.489 316.767ZM290.208 316.767C290.208 307.613 286.099 302.568 280.186 302.568C274.273 302.568 270.163 307.58 270.163 316.767C270.163 325.954 274.273 330.949 280.186 330.949C286.099 330.949 290.208 325.904 290.208 316.767Z" fill="#263238"/>
<path d="M298.878 316.767C298.878 305.859 304.591 299.345 312.525 299.345C320.46 299.345 326.223 305.859 326.223 316.767C326.223 327.675 320.443 334.173 312.525 334.173C304.607 334.173 298.878 327.675 298.878 316.767ZM322.598 316.767C322.598 307.613 318.489 302.568 312.575 302.568C306.662 302.568 302.553 307.58 302.553 316.767C302.553 325.954 306.662 330.949 312.575 330.949C318.489 330.949 322.598 325.904 322.598 316.767Z" fill="#263238"/>
<path d="M422.522 260.023H202.027C199.142 260.023 196.284 259.454 193.619 258.347C190.953 257.241 188.533 255.619 186.495 253.576C184.458 251.532 182.843 249.106 181.745 246.437C180.647 243.769 180.086 240.91 180.095 238.024C180.095 232.207 182.406 226.628 186.519 222.515C190.632 218.402 196.21 216.091 202.027 216.091H422.522C428.339 216.091 433.918 218.402 438.031 222.515C442.144 226.628 444.455 232.207 444.455 238.024C444.464 240.91 443.903 243.769 442.804 246.437C441.706 249.106 440.092 251.532 438.054 253.576C436.017 255.619 433.596 257.241 430.931 258.347C428.265 259.454 425.408 260.023 422.522 260.023Z" fill="#E0E0E0"/>
<path d="M200.436 245.261C199.407 245.261 198.506 244.989 197.733 244.445C196.959 243.9 196.355 243.141 195.919 242.166C195.489 241.191 195.274 240.056 195.274 238.76C195.274 237.469 195.489 236.34 195.919 235.37C196.355 234.396 196.962 233.639 197.741 233.1C198.519 232.555 199.426 232.283 200.461 232.283C201.223 232.283 201.857 232.419 202.364 232.691C202.87 232.958 203.276 233.29 203.581 233.688C203.886 234.085 204.122 234.472 204.291 234.848H204.422V228.273H205.884V245H204.463V242.672H204.291C204.122 243.053 203.883 243.445 203.572 243.848C203.262 244.246 202.851 244.581 202.339 244.853C201.833 245.125 201.198 245.261 200.436 245.261ZM200.608 243.93C201.419 243.93 202.11 243.71 202.682 243.268C203.254 242.822 203.69 242.209 203.989 241.431C204.294 240.647 204.446 239.748 204.446 238.735C204.446 237.734 204.297 236.849 203.997 236.081C203.698 235.308 203.262 234.703 202.69 234.268C202.119 233.827 201.424 233.606 200.608 233.606C199.769 233.606 199.061 233.835 198.484 234.292C197.912 234.744 197.477 235.357 197.177 236.13C196.883 236.903 196.736 237.772 196.736 238.735C196.736 239.71 196.886 240.589 197.185 241.374C197.485 242.158 197.92 242.781 198.492 243.244C199.069 243.701 199.775 243.93 200.608 243.93ZM211.479 237.159V245H210.025V228.273H211.479V234.423H211.609C211.903 233.775 212.358 233.258 212.973 232.871C213.594 232.484 214.378 232.291 215.326 232.291C216.175 232.291 216.921 232.465 217.564 232.814C218.206 233.162 218.707 233.677 219.066 234.358C219.426 235.038 219.605 235.877 219.605 236.873V245H218.143V236.963C218.143 235.929 217.855 235.114 217.278 234.521C216.706 233.922 215.933 233.623 214.958 233.623C214.288 233.623 213.692 233.764 213.169 234.047C212.647 234.33 212.233 234.739 211.928 235.272C211.628 235.801 211.479 236.429 211.479 237.159ZM226.938 245.286C226.181 245.286 225.49 245.139 224.863 244.845C224.237 244.545 223.739 244.115 223.369 243.554C222.998 242.988 222.813 242.302 222.813 241.496C222.813 240.875 222.93 240.353 223.165 239.928C223.399 239.503 223.731 239.155 224.161 238.882C224.591 238.61 225.1 238.395 225.688 238.237C226.276 238.079 226.924 237.957 227.632 237.87C228.335 237.783 228.928 237.706 229.413 237.641C229.903 237.576 230.276 237.472 230.532 237.331C230.788 237.189 230.916 236.96 230.916 236.645V236.35C230.916 235.496 230.66 234.823 230.148 234.333C229.641 233.838 228.912 233.59 227.959 233.59C227.055 233.59 226.317 233.789 225.745 234.186C225.179 234.584 224.782 235.052 224.553 235.591L223.173 235.093C223.456 234.407 223.848 233.859 224.349 233.451C224.85 233.037 225.411 232.74 226.031 232.561C226.652 232.376 227.281 232.283 227.918 232.283C228.397 232.283 228.895 232.346 229.413 232.471C229.935 232.596 230.42 232.814 230.867 233.124C231.313 233.429 231.675 233.857 231.953 234.407C232.231 234.951 232.369 235.643 232.369 236.481V245H230.916V243.015H230.826C230.651 243.386 230.393 243.745 230.05 244.093C229.707 244.442 229.277 244.728 228.759 244.951C228.242 245.174 227.635 245.286 226.938 245.286ZM227.134 243.955C227.907 243.955 228.577 243.783 229.143 243.44C229.709 243.097 230.145 242.642 230.45 242.076C230.76 241.504 230.916 240.875 230.916 240.189V238.376C230.807 238.48 230.624 238.572 230.368 238.654C230.118 238.735 229.827 238.809 229.494 238.874C229.168 238.934 228.841 238.986 228.514 239.029C228.188 239.073 227.894 239.111 227.632 239.144C226.924 239.231 226.32 239.367 225.819 239.552C225.318 239.737 224.934 239.993 224.667 240.32C224.401 240.641 224.267 241.055 224.267 241.561C224.267 242.324 224.539 242.915 225.084 243.334C225.628 243.748 226.312 243.955 227.134 243.955ZM236.237 245V232.455H237.65V234.382H237.78C238.031 233.734 238.447 233.225 239.03 232.855C239.618 232.479 240.323 232.291 241.146 232.291C242.011 232.291 242.722 232.495 243.277 232.904C243.838 233.307 244.257 233.862 244.535 234.57H244.641C244.924 233.873 245.384 233.32 246.022 232.912C246.664 232.498 247.443 232.291 248.358 232.291C249.523 232.291 250.443 232.659 251.118 233.394C251.793 234.123 252.131 235.191 252.131 236.596V245H250.677V236.596C250.677 235.605 250.424 234.861 249.918 234.366C249.411 233.87 248.744 233.623 247.916 233.623C246.958 233.623 246.22 233.917 245.703 234.505C245.186 235.093 244.927 235.839 244.927 236.743V245H243.441V236.465C243.441 235.615 243.204 234.929 242.73 234.407C242.256 233.884 241.589 233.623 240.729 233.623C240.152 233.623 239.632 233.764 239.169 234.047C238.712 234.33 238.349 234.725 238.083 235.232C237.821 235.732 237.691 236.31 237.691 236.963V245H236.237ZM263.952 240.206V232.455H265.405V245H263.952V242.917H263.837C263.543 243.56 263.078 244.096 262.441 244.526C261.803 244.951 261.025 245.163 260.105 245.163C259.304 245.163 258.594 244.989 257.973 244.641C257.352 244.287 256.865 243.769 256.511 243.089C256.157 242.408 255.98 241.572 255.98 240.581V232.455H257.434V240.491C257.434 241.472 257.722 242.261 258.3 242.86C258.877 243.454 259.617 243.75 260.521 243.75C261.087 243.75 261.632 243.614 262.155 243.342C262.677 243.07 263.108 242.672 263.445 242.15C263.783 241.621 263.952 240.973 263.952 240.206ZM274.196 232.455V233.721H268.209V232.455H274.196ZM270.079 229.449H271.541V241.725C271.541 242.248 271.631 242.659 271.811 242.958C271.991 243.252 272.225 243.462 272.513 243.587C272.802 243.707 273.109 243.767 273.436 243.767C273.627 243.767 273.79 243.756 273.926 243.734C274.062 243.707 274.182 243.68 274.286 243.652L274.596 244.967C274.454 245.022 274.28 245.071 274.073 245.114C273.866 245.163 273.61 245.188 273.305 245.188C272.772 245.188 272.257 245.071 271.762 244.837C271.272 244.603 270.869 244.254 270.553 243.791C270.237 243.328 270.079 242.754 270.079 242.068V229.449ZM282.435 245.261C281.264 245.261 280.251 244.989 279.396 244.445C278.542 243.895 277.88 243.135 277.412 242.166C276.949 241.191 276.718 240.069 276.718 238.801C276.718 237.538 276.949 236.416 277.412 235.436C277.88 234.45 278.525 233.68 279.347 233.124C280.175 232.563 281.131 232.283 282.214 232.283C282.895 232.283 283.551 232.408 284.183 232.659C284.814 232.904 285.381 233.282 285.882 233.794C286.388 234.3 286.788 234.94 287.082 235.713C287.376 236.481 287.523 237.391 287.523 238.441V239.16H277.722V237.878H286.037C286.037 237.072 285.873 236.348 285.547 235.705C285.225 235.057 284.776 234.545 284.199 234.17C283.627 233.794 282.966 233.606 282.214 233.606C281.419 233.606 280.72 233.819 280.115 234.243C279.511 234.668 279.037 235.229 278.694 235.926C278.356 236.623 278.185 237.385 278.18 238.213V238.98C278.18 239.977 278.351 240.848 278.694 241.594C279.043 242.335 279.535 242.909 280.172 243.317C280.809 243.726 281.564 243.93 282.435 243.93C283.028 243.93 283.548 243.837 283.995 243.652C284.447 243.467 284.825 243.219 285.13 242.909C285.441 242.593 285.675 242.248 285.833 241.872L287.213 242.321C287.022 242.849 286.709 243.337 286.274 243.783C285.843 244.23 285.304 244.589 284.656 244.861C284.014 245.128 283.273 245.261 282.435 245.261ZM295.628 245.261C294.506 245.261 293.528 244.981 292.695 244.42C291.868 243.859 291.225 243.092 290.768 242.117C290.31 241.142 290.082 240.031 290.082 238.784C290.082 237.527 290.313 236.408 290.776 235.428C291.244 234.447 291.892 233.68 292.72 233.124C293.548 232.563 294.509 232.283 295.603 232.283C296.442 232.283 297.201 232.446 297.882 232.773C298.562 233.094 299.123 233.549 299.564 234.137C300.011 234.72 300.291 235.4 300.406 236.179H298.935C298.783 235.471 298.415 234.867 297.833 234.366C297.256 233.859 296.521 233.606 295.628 233.606C294.827 233.606 294.119 233.824 293.504 234.26C292.889 234.69 292.407 235.291 292.058 236.065C291.715 236.832 291.544 237.723 291.544 238.735C291.544 239.754 291.713 240.655 292.05 241.439C292.388 242.218 292.861 242.827 293.471 243.268C294.087 243.71 294.805 243.93 295.628 243.93C296.183 243.93 296.689 243.827 297.147 243.62C297.61 243.407 297.996 243.108 298.307 242.721C298.622 242.335 298.835 241.875 298.944 241.341H300.414C300.305 242.098 300.035 242.773 299.605 243.366C299.18 243.955 298.628 244.417 297.947 244.755C297.272 245.093 296.499 245.261 295.628 245.261ZM304.984 237.159V245H303.53V228.273H304.984V234.423H305.114C305.408 233.775 305.863 233.258 306.478 232.871C307.099 232.484 307.883 232.291 308.831 232.291C309.68 232.291 310.426 232.465 311.068 232.814C311.711 233.162 312.212 233.677 312.571 234.358C312.931 235.038 313.11 235.877 313.11 236.873V245H311.648V236.963C311.648 235.929 311.36 235.114 310.783 234.521C310.211 233.922 309.438 233.623 308.463 233.623C307.793 233.623 307.197 233.764 306.674 234.047C306.152 234.33 305.738 234.739 305.433 235.272C305.133 235.801 304.984 236.429 304.984 237.159ZM318.099 245.123C317.777 245.123 317.5 245.008 317.266 244.779C317.037 244.545 316.923 244.268 316.923 243.946C316.923 243.62 317.037 243.342 317.266 243.113C317.5 242.885 317.777 242.77 318.099 242.77C318.425 242.77 318.703 242.885 318.932 243.113C319.161 243.342 319.275 243.62 319.275 243.946C319.275 244.159 319.22 244.355 319.112 244.534C319.008 244.714 318.866 244.858 318.687 244.967C318.513 245.071 318.317 245.123 318.099 245.123ZM328.016 245.261C326.895 245.261 325.917 244.981 325.084 244.42C324.256 243.859 323.614 243.092 323.157 242.117C322.699 241.142 322.47 240.031 322.47 238.784C322.47 237.527 322.702 236.408 323.165 235.428C323.633 234.447 324.281 233.68 325.109 233.124C325.936 232.563 326.897 232.283 327.992 232.283C328.83 232.283 329.59 232.446 330.271 232.773C330.951 233.094 331.512 233.549 331.953 234.137C332.4 234.72 332.68 235.4 332.794 236.179H331.324C331.172 235.471 330.804 234.867 330.222 234.366C329.644 233.859 328.909 233.606 328.016 233.606C327.216 233.606 326.508 233.824 325.893 234.26C325.277 234.69 324.795 235.291 324.447 236.065C324.104 236.832 323.932 237.723 323.932 238.735C323.932 239.754 324.101 240.655 324.439 241.439C324.776 242.218 325.25 242.827 325.86 243.268C326.475 243.71 327.194 243.93 328.016 243.93C328.572 243.93 329.078 243.827 329.535 243.62C329.998 243.407 330.385 243.108 330.695 242.721C331.011 242.335 331.223 241.875 331.332 241.341H332.802C332.694 242.098 332.424 242.773 331.994 243.366C331.569 243.955 331.016 244.417 330.336 244.755C329.661 245.093 328.887 245.261 328.016 245.261ZM340.794 245.261C339.711 245.261 338.753 244.986 337.919 244.436C337.092 243.886 336.444 243.127 335.976 242.158C335.507 241.183 335.273 240.059 335.273 238.784C335.273 237.499 335.507 236.37 335.976 235.395C336.444 234.415 337.092 233.652 337.919 233.108C338.753 232.558 339.711 232.283 340.794 232.283C341.878 232.283 342.834 232.558 343.661 233.108C344.489 233.658 345.137 234.42 345.605 235.395C346.079 236.37 346.316 237.499 346.316 238.784C346.316 240.059 346.082 241.183 345.613 242.158C345.145 243.127 344.494 243.886 343.661 244.436C342.834 244.986 341.878 245.261 340.794 245.261ZM340.794 243.93C341.666 243.93 342.403 243.696 343.008 243.228C343.612 242.759 344.07 242.136 344.38 241.357C344.696 240.579 344.854 239.721 344.854 238.784C344.854 237.848 344.696 236.988 344.38 236.203C344.07 235.419 343.612 234.79 343.008 234.317C342.403 233.843 341.666 233.606 340.794 233.606C339.929 233.606 339.191 233.843 338.581 234.317C337.977 234.79 337.517 235.419 337.201 236.203C336.89 236.988 336.735 237.848 336.735 238.784C336.735 239.721 336.89 240.579 337.201 241.357C337.517 242.136 337.977 242.759 338.581 243.228C339.185 243.696 339.923 243.93 340.794 243.93ZM349.507 245V232.455H350.92V234.382H351.051C351.301 233.734 351.718 233.225 352.301 232.855C352.889 232.479 353.594 232.291 354.416 232.291C355.282 232.291 355.992 232.495 356.548 232.904C357.109 233.307 357.528 233.862 357.806 234.57H357.912C358.195 233.873 358.655 233.32 359.292 232.912C359.935 232.498 360.713 232.291 361.628 232.291C362.793 232.291 363.713 232.659 364.389 233.394C365.064 234.123 365.401 235.191 365.401 236.596V245H363.948V236.596C363.948 235.605 363.694 234.861 363.188 234.366C362.682 233.87 362.015 233.623 361.187 233.623C360.229 233.623 359.491 233.917 358.974 234.505C358.456 235.093 358.198 235.839 358.198 236.743V245H356.711V236.465C356.711 235.615 356.474 234.929 356.001 234.407C355.527 233.884 354.86 233.623 353.999 233.623C353.422 233.623 352.902 233.764 352.439 234.047C351.982 234.33 351.62 234.725 351.353 235.232C351.092 235.732 350.961 236.31 350.961 236.963V245H349.507Z" fill="black"/>
<path d="M416.792 246.459C415.14 246.459 413.526 245.969 412.152 245.052C410.779 244.134 409.708 242.829 409.076 241.303C408.444 239.777 408.278 238.098 408.601 236.478C408.923 234.858 409.718 233.369 410.886 232.201C412.054 231.033 413.543 230.238 415.163 229.915C416.783 229.593 418.462 229.759 419.988 230.391C421.515 231.023 422.819 232.093 423.737 233.467C424.654 234.84 425.144 236.455 425.144 238.107C425.144 240.322 424.264 242.447 422.698 244.013C421.132 245.579 419.007 246.459 416.792 246.459ZM416.792 231.425C415.471 231.425 414.179 231.817 413.08 232.551C411.981 233.286 411.125 234.329 410.619 235.55C410.113 236.771 409.981 238.114 410.239 239.411C410.497 240.707 411.133 241.897 412.068 242.832C413.002 243.766 414.193 244.403 415.489 244.66C416.785 244.918 418.128 244.786 419.349 244.28C420.57 243.774 421.614 242.918 422.348 241.819C423.082 240.72 423.474 239.429 423.474 238.107C423.485 237.223 423.32 236.345 422.989 235.524C422.659 234.704 422.168 233.958 421.547 233.328C420.925 232.699 420.185 232.199 419.369 231.858C418.553 231.517 417.677 231.342 416.792 231.342V231.425Z" fill="#263238"/>
<path d="M428.034 248.631C427.933 248.633 427.832 248.615 427.737 248.577C427.642 248.54 427.556 248.485 427.483 248.414L421.971 243.603C421.816 243.454 421.724 243.251 421.715 243.036C421.706 242.82 421.78 242.61 421.922 242.449C422.065 242.287 422.264 242.187 422.478 242.168C422.693 242.15 422.906 242.215 423.073 242.35L428.586 247.161C428.664 247.238 428.726 247.331 428.769 247.433C428.811 247.534 428.833 247.644 428.833 247.754C428.833 247.864 428.811 247.973 428.769 248.075C428.726 248.177 428.664 248.269 428.586 248.347C428.445 248.509 428.248 248.61 428.034 248.631Z" fill="#263238"/>
<path d="M415.523 330.431C416.112 330.472 416.704 330.472 417.293 330.431C418.954 330.2 420.52 329.518 421.82 328.46C422.753 327.721 423.526 326.8 424.092 325.754C424.414 325.169 424.661 324.546 424.827 323.9C425.004 323.201 425.088 322.482 425.078 321.762C425.064 320.988 424.951 320.219 424.743 319.473C424.505 318.693 424.18 317.942 423.775 317.235C422.881 315.712 421.547 314.495 419.949 313.744H419.866V313.66C419.893 312.445 419.578 311.247 418.958 310.201C418.338 309.156 417.437 308.306 416.358 307.747C415.168 307.179 413.832 306.991 412.532 307.209C411.232 307.427 410.031 308.041 409.092 308.966L408.875 309.167V308.883C408.418 306.958 407.5 305.173 406.199 303.683C404.898 302.193 403.253 301.042 401.408 300.33C400.439 299.941 399.422 299.688 398.384 299.578C398.129 299.554 397.872 299.554 397.616 299.578H396.848C394.326 299.68 391.916 300.641 390.016 302.301C388.592 303.548 387.453 305.086 386.675 306.811C385.944 308.448 385.607 310.233 385.689 312.023V312.223H385.505C383.523 311.771 381.446 312.019 379.626 312.925C378.784 313.34 378.003 313.869 377.304 314.495C376.656 315.101 376.094 315.792 375.633 316.55C375.222 317.272 374.913 318.048 374.715 318.855C374.544 319.616 374.488 320.399 374.548 321.177C374.648 322.556 375.065 323.894 375.767 325.086C376.74 326.678 378.165 327.945 379.859 328.727C380.491 328.994 381.145 329.207 381.814 329.362H381.68H381.296C381.079 329.327 380.867 329.271 380.661 329.195C380.371 329.114 380.086 329.014 379.809 328.894C377.999 328.083 376.491 326.721 375.5 325.002C374.776 323.791 374.336 322.432 374.213 321.027C374.062 319.363 374.448 317.694 375.316 316.266C375.767 315.481 376.33 314.767 376.986 314.144C377.705 313.484 378.508 312.922 379.375 312.474C381.249 311.531 383.393 311.271 385.439 311.739L385.255 311.889C385.17 310.054 385.513 308.224 386.257 306.544C387.067 304.764 388.253 303.18 389.732 301.9C391.298 300.563 393.187 299.659 395.211 299.278C395.724 299.183 396.243 299.121 396.764 299.094H397.566C397.827 299.077 398.09 299.077 398.351 299.094C399.418 299.213 400.463 299.477 401.458 299.879C403.356 300.607 405.046 301.789 406.383 303.32C407.719 304.852 408.661 306.687 409.125 308.665L408.858 308.582C409.8 307.631 411.01 306.989 412.326 306.741C413.641 306.494 415.001 306.652 416.225 307.196C417.449 307.74 418.478 308.643 419.176 309.786C419.874 310.928 420.208 312.256 420.133 313.593L420.05 313.46C421.697 314.231 423.068 315.491 423.975 317.068C424.39 317.796 424.721 318.569 424.961 319.373C425.167 320.136 425.28 320.921 425.295 321.711C425.292 322.454 425.203 323.194 425.027 323.916C424.845 324.581 424.581 325.22 424.242 325.821C423.532 327.089 422.532 328.171 421.325 328.981C420.117 329.791 418.736 330.305 417.293 330.481C416.849 330.518 416.402 330.518 415.957 330.481L415.523 330.431Z" fill="#263238"/>
<path d="M416.375 331.333H415.891H415.406C415.251 331.308 415.106 331.24 414.988 331.137C414.87 331.033 414.783 330.899 414.738 330.748C414.689 330.602 414.682 330.444 414.718 330.294C414.753 330.144 414.829 330.006 414.938 329.896C415.044 329.801 415.169 329.731 415.305 329.691C415.44 329.65 415.583 329.641 415.723 329.663C416.213 329.695 416.704 329.695 417.193 329.663C418.696 329.444 420.111 328.821 421.286 327.858C422.134 327.194 422.838 326.364 423.357 325.42C423.645 324.891 423.87 324.33 424.025 323.749C424.179 323.126 424.252 322.486 424.243 321.845C424.222 321.151 424.122 320.461 423.942 319.79C423.723 319.075 423.426 318.386 423.057 317.736C422.248 316.365 421.05 315.266 419.616 314.579C419.45 314.508 419.308 314.392 419.205 314.244C419.101 314.097 419.041 313.923 419.031 313.743C419.096 312.635 418.821 311.533 418.244 310.585C417.667 309.636 416.815 308.886 415.801 308.434C414.786 307.983 413.659 307.851 412.568 308.056C411.476 308.262 410.474 308.795 409.693 309.584L409.493 309.801C409.384 309.906 409.249 309.979 409.102 310.014C408.956 310.05 408.802 310.045 408.658 310.002C408.513 309.962 408.382 309.884 408.279 309.775C408.176 309.666 408.104 309.53 408.073 309.384V309.083C407.645 307.296 406.789 305.64 405.579 304.257C404.368 302.875 402.839 301.808 401.124 301.149C400.23 300.789 399.292 300.553 398.334 300.447C398.101 300.434 397.867 300.434 397.633 300.447H396.514C396.188 300.467 395.864 300.512 395.545 300.581C393.692 300.918 391.962 301.742 390.534 302.969C389.181 304.124 388.098 305.561 387.36 307.179C386.682 308.695 386.368 310.347 386.441 312.006V312.19C386.447 312.322 386.422 312.453 386.37 312.575C386.318 312.696 386.24 312.804 386.14 312.892C386.04 312.976 385.921 313.036 385.793 313.065C385.665 313.094 385.532 313.092 385.405 313.059H385.222C383.431 312.645 381.552 312.869 379.91 313.693C379.136 314.074 378.417 314.557 377.772 315.13C377.186 315.685 376.675 316.314 376.252 317.001C375.882 317.651 375.601 318.347 375.416 319.072C375.269 319.741 375.224 320.428 375.283 321.11C375.37 322.365 375.748 323.583 376.385 324.668C377.263 326.22 378.599 327.462 380.21 328.226C380.744 328.47 381.305 328.649 381.881 328.76C382.023 328.774 382.161 328.821 382.282 328.896C382.404 328.971 382.507 329.074 382.582 329.195C382.698 329.391 382.734 329.624 382.683 329.846C382.598 330.055 382.443 330.227 382.245 330.334C382.047 330.44 381.818 330.475 381.597 330.431H381.196C380.934 330.388 380.677 330.321 380.428 330.23H380.227C379.973 330.162 379.726 330.067 379.492 329.946C377.532 329.072 375.901 327.598 374.832 325.737C374.045 324.42 373.57 322.94 373.445 321.411C373.367 320.539 373.418 319.661 373.596 318.805C373.814 317.88 374.163 316.992 374.631 316.166C375.678 314.398 377.224 312.98 379.075 312.09C380.753 311.248 382.634 310.895 384.503 311.071C384.578 309.512 384.947 307.982 385.589 306.561C386.434 304.662 387.696 302.977 389.281 301.633C390.953 300.189 392.975 299.21 395.144 298.793C395.558 298.714 395.976 298.664 396.397 298.643H396.781H397.65C397.955 298.617 398.263 298.617 398.568 298.643C399.714 298.764 400.837 299.039 401.909 299.461C403.687 300.158 405.298 301.221 406.636 302.583C407.975 303.944 409.011 305.573 409.677 307.362C410.774 306.652 412.04 306.243 413.346 306.179C414.652 306.116 415.952 306.398 417.114 306.998C418.276 307.599 419.258 308.496 419.961 309.598C420.665 310.7 421.064 311.969 421.119 313.276C422.664 314.149 423.95 315.417 424.844 316.951C425.748 318.469 426.243 320.195 426.281 321.962C426.277 322.778 426.176 323.592 425.98 324.384C425.782 325.131 425.49 325.849 425.111 326.522C424.467 327.67 423.598 328.676 422.555 329.479C421.115 330.635 419.379 331.365 417.544 331.583C417.026 331.3 416.609 331.333 416.375 331.333Z" fill="#263238"/>
<path d="M395.712 324.451C395.035 325.895 394.26 327.29 393.39 328.627C392.609 330.015 391.744 331.353 390.801 332.636C391.467 331.19 392.237 329.794 393.106 328.46C393.883 327.067 394.754 325.727 395.712 324.451Z" fill="#263238"/>
<path d="M390.851 333.538C390.677 333.516 390.511 333.453 390.367 333.354C389.565 332.87 389.581 332.72 392.388 328.026C394.943 323.783 395.144 323.733 395.495 323.632C395.602 323.606 395.713 323.602 395.822 323.619C395.931 323.636 396.036 323.675 396.129 323.733C396.315 323.854 396.451 324.038 396.514 324.251C396.514 324.618 396.647 324.802 394.092 329.061C391.937 332.653 391.369 333.538 390.851 333.538Z" fill="#263238"/>
<path d="M403.412 324.451C402.745 325.899 401.968 327.295 401.091 328.627C400.31 330.015 399.445 331.353 398.501 332.636C399.168 331.19 399.938 329.794 400.807 328.46C401.584 327.067 402.455 325.727 403.412 324.451Z" fill="#263238"/>
<path d="M398.501 333.471C398.347 333.468 398.197 333.421 398.067 333.338C397.265 332.87 397.282 332.72 400.088 328.026C402.644 323.783 402.844 323.733 403.212 323.632C403.319 323.606 403.43 323.602 403.539 323.619C403.648 323.636 403.753 323.675 403.847 323.733C404.632 324.217 404.632 324.367 401.809 329.061C399.253 333.304 399.053 333.354 398.702 333.438L398.501 333.471Z" fill="#263238"/>
<path d="M411.113 324.451C410.445 325.899 409.669 327.295 408.791 328.627C408.011 330.015 407.146 331.353 406.202 332.636C406.868 331.19 407.639 329.794 408.507 328.46C409.285 327.067 410.156 325.727 411.113 324.451Z" fill="#263238"/>
<path d="M406.252 333.538C406.078 333.516 405.912 333.453 405.768 333.354C404.966 332.87 404.983 332.72 407.806 328.026C410.345 323.783 410.545 323.733 410.913 323.632C411.129 323.583 411.356 323.619 411.547 323.733C411.737 323.85 411.875 324.035 411.932 324.251C412.015 324.618 412.065 324.802 409.51 329.061C407.355 332.653 406.77 333.538 406.252 333.538Z" fill="#263238"/>
<path d="M386.792 335.927C386.12 337.373 385.344 338.769 384.47 340.103C383.697 341.49 382.832 342.823 381.881 344.095C382.555 342.65 383.331 341.254 384.203 339.919C384.967 338.527 385.833 337.193 386.792 335.927Z" fill="#263238"/>
<path d="M381.88 344.93C381.728 344.933 381.577 344.893 381.446 344.813C381.256 344.696 381.119 344.511 381.062 344.295C380.978 343.945 380.928 343.744 383.484 339.501C386.29 334.824 386.424 334.724 387.226 335.208C388.011 335.693 388.011 335.843 385.188 340.52C382.632 344.78 382.448 344.83 382.081 344.913L381.88 344.93Z" fill="#263238"/>
<path d="M394.492 335.927C393.042 338.758 391.402 341.487 389.581 344.095C390.256 342.656 391.032 341.266 391.903 339.936C392.674 338.542 393.539 337.203 394.492 335.927Z" fill="#263238"/>
<path d="M389.581 344.93C389.428 344.933 389.278 344.893 389.147 344.813C388.957 344.696 388.82 344.511 388.763 344.295C388.679 343.945 388.629 343.744 391.185 339.501C393.991 334.808 394.125 334.724 394.927 335.208C395.695 335.693 395.695 335.843 392.872 340.52C390.333 344.78 390.133 344.83 389.765 344.914L389.581 344.93Z" fill="#263238"/>
<path d="M402.193 335.927C400.76 338.767 399.118 341.497 397.282 344.095C397.957 342.656 398.733 341.266 399.604 339.936C400.375 338.542 401.24 337.203 402.193 335.927Z" fill="#263238"/>
<path d="M397.282 344.93C397.129 344.933 396.978 344.893 396.848 344.813C396.658 344.696 396.52 344.511 396.464 344.295C396.38 343.945 396.33 343.744 398.886 339.501C401.692 334.824 401.826 334.724 402.627 335.208C403.429 335.693 403.413 335.843 400.59 340.52C398.034 344.78 397.85 344.83 397.483 344.913L397.282 344.93Z" fill="#263238"/>
<path d="M410.245 336.094C409.56 337.534 408.785 338.929 407.923 340.27C407.152 341.667 406.281 343.007 405.317 344.279C406.001 342.839 406.776 341.444 407.639 340.103C408.409 338.705 409.28 337.365 410.245 336.094Z" fill="#263238"/>
<path d="M405.383 345.181C405.209 345.136 405.049 345.05 404.916 344.93C404.114 344.446 404.114 344.295 406.937 339.601C409.493 335.359 409.693 335.308 410.044 335.225C410.259 335.176 410.484 335.205 410.679 335.308C410.861 335.433 410.996 335.615 411.063 335.826C411.146 336.194 411.196 336.394 408.641 340.637C406.469 344.312 405.901 345.181 405.383 345.181Z" fill="#263238"/>
<path d="M277.981 685.093C281.893 685.093 285.064 681.922 285.064 678.011C285.064 674.099 281.893 670.928 277.981 670.928C274.069 670.928 270.898 674.099 270.898 678.011C270.898 681.922 274.069 685.093 277.981 685.093Z" fill="#EBEBEB"/>
<path d="M301.651 685.093C305.562 685.093 308.733 681.922 308.733 678.011C308.733 674.099 305.562 670.928 301.651 670.928C297.739 670.928 294.568 674.099 294.568 678.011C294.568 681.922 297.739 685.093 301.651 685.093Z" fill="#E0E0E0"/>
<path d="M325.32 685.093C329.232 685.093 332.403 681.922 332.403 678.011C332.403 674.099 329.232 670.928 325.32 670.928C321.409 670.928 318.238 674.099 318.238 678.011C318.238 681.922 321.409 685.093 325.32 685.093Z" fill="#E0E0E0"/>
<path d="M348.991 685.093C352.902 685.093 356.073 681.922 356.073 678.011C356.073 674.099 352.902 670.928 348.991 670.928C345.079 670.928 341.908 674.099 341.908 678.011C341.908 681.922 345.079 685.093 348.991 685.093Z" fill="#E0E0E0"/>
<path d="M218.982 713.223H192.239C183.871 713.223 177.088 720.007 177.088 728.374V755.117C177.088 763.485 183.871 770.268 192.239 770.268H218.982C227.349 770.268 234.133 763.485 234.133 755.117V728.374C234.133 720.007 227.349 713.223 218.982 713.223Z" fill="#FFB534"/>
<path d="M289.19 712.689H264.25C255.385 712.689 248.198 719.876 248.198 728.741V753.681C248.198 762.546 255.385 769.733 264.25 769.733H289.19C298.055 769.733 305.242 762.546 305.242 753.681V728.741C305.242 719.876 298.055 712.689 289.19 712.689Z" fill="#E0E0E0"/>
<path d="M359.38 712.171H336.279C326.905 712.171 319.307 719.769 319.307 729.142V752.244C319.307 761.617 326.905 769.216 336.279 769.216H359.38C368.753 769.216 376.352 761.617 376.352 752.244V729.142C376.352 719.769 368.753 712.171 359.38 712.171Z" fill="#455A64"/>
<path d="M430.289 713.223H407.588C398.105 713.223 390.417 720.911 390.417 730.395V753.096C390.417 762.58 398.105 770.268 407.588 770.268H430.289C439.773 770.268 447.461 762.58 447.461 753.096V730.395C447.461 720.911 439.773 713.223 430.289 713.223Z" fill="#263238"/>
<path d="M219.116 589.729H192.105C183.811 589.729 177.088 596.453 177.088 604.747V631.757C177.088 640.051 183.811 646.774 192.105 646.774H219.116C227.409 646.774 234.133 640.051 234.133 631.757V604.747C234.133 596.453 227.409 589.729 219.116 589.729Z" fill="#455A64"/>
<path d="M287.636 589.195H265.804C256.08 589.195 248.198 597.078 248.198 606.801V628.634C248.198 638.357 256.08 646.24 265.804 646.24H287.636C297.36 646.24 305.242 638.357 305.242 628.634V606.801C305.242 597.078 297.36 589.195 287.636 589.195Z" fill="#263238"/>
<path d="M360.767 588.66H334.892C326.285 588.66 319.307 595.638 319.307 604.245V630.12C319.307 638.727 326.285 645.705 334.892 645.705H360.767C369.374 645.705 376.352 638.727 376.352 630.12V604.245C376.352 595.638 369.374 588.66 360.767 588.66Z" fill="#E0E0E0"/>
<path d="M430.423 588.143H407.455C398.045 588.143 390.417 595.771 390.417 605.181V628.149C390.417 637.559 398.045 645.187 407.455 645.187H430.423C439.833 645.187 447.461 637.559 447.461 628.149V605.181C447.461 595.771 439.833 588.143 430.423 588.143Z" fill="#FFB534"/>
<path d="M199.455 608.087C200.358 607.544 201.33 607.123 202.344 606.835L202.929 603.995H207.757L208.441 606.818C209.462 607.073 210.445 607.461 211.365 607.97L213.803 606.3L217.261 609.641L215.758 612.13C216.301 613.033 216.723 614.005 217.011 615.02L219.85 615.604L219.934 620.432L217.111 621.117C216.856 622.137 216.468 623.12 215.958 624.04L217.629 626.479L214.288 629.936L211.816 628.433C210.912 628.977 209.94 629.398 208.926 629.686L208.341 632.526H203.514L202.829 629.703C201.809 629.447 200.826 629.06 199.906 628.55L197.467 630.22L194.009 626.88L195.512 624.407C194.969 623.504 194.548 622.532 194.26 621.518L191.42 620.933L191.336 616.105L194.159 615.421C194.412 614.399 194.8 613.416 195.312 612.497L193.642 610.058L196.982 606.601L199.455 608.104V608.087ZM201.125 613.9C200.262 614.795 199.683 615.925 199.463 617.148C199.242 618.371 199.389 619.632 199.886 620.772C200.382 621.911 201.206 622.877 202.252 623.549C203.298 624.22 204.519 624.566 205.762 624.542C207.005 624.519 208.212 624.127 209.232 623.417C210.252 622.707 211.039 621.71 211.492 620.553C211.945 619.396 212.045 618.13 211.778 616.916C211.512 615.702 210.891 614.594 209.995 613.733C209.404 613.159 208.706 612.706 207.94 612.402C207.175 612.097 206.356 611.947 205.532 611.96C204.708 611.972 203.895 612.147 203.139 612.474C202.382 612.801 201.698 613.275 201.125 613.867V613.9Z" fill="white"/>
<path d="M334.524 754.533L336.612 746.782C334.939 743.761 334.412 740.237 335.128 736.858C335.843 733.48 337.753 730.472 340.507 728.389C343.261 726.305 346.675 725.284 350.121 725.514C353.566 725.744 356.814 727.209 359.267 729.64C361.72 732.071 363.213 735.306 363.473 738.75C363.734 742.193 362.743 745.616 360.684 748.388C358.624 751.16 355.634 753.097 352.261 753.842C348.889 754.587 345.361 754.091 342.325 752.445L334.524 754.533ZM342.709 749.521L343.194 749.805C345.645 751.273 348.549 751.792 351.357 751.265C354.165 750.738 356.683 749.201 358.435 746.945C360.187 744.688 361.053 741.868 360.868 739.017C360.684 736.166 359.462 733.481 357.433 731.47C355.404 729.458 352.709 728.259 349.857 728.098C347.004 727.938 344.192 728.827 341.95 730.598C339.709 732.37 338.193 734.9 337.69 737.713C337.187 740.525 337.73 743.424 339.218 745.863L339.519 746.348L338.35 750.691L342.709 749.521Z" fill="white"/>
<path fill-rule="evenodd" clip-rule="evenodd" d="M354.286 741.938C354.004 741.71 353.674 741.55 353.321 741.469C352.968 741.388 352.601 741.388 352.248 741.47C351.713 741.687 351.362 742.522 351.028 742.94C350.957 743.045 350.848 743.119 350.724 743.147C350.6 743.175 350.47 743.155 350.36 743.09C348.414 742.324 346.784 740.923 345.733 739.115C345.682 739.065 345.641 739.005 345.613 738.939C345.585 738.873 345.57 738.802 345.57 738.73C345.57 738.659 345.585 738.588 345.613 738.522C345.641 738.456 345.682 738.396 345.733 738.346C346.128 737.972 346.416 737.499 346.568 736.976C346.617 736.395 346.489 735.813 346.201 735.306C345.976 734.605 345.559 733.98 344.998 733.502C344.708 733.374 344.388 733.331 344.074 733.378C343.76 733.426 343.467 733.561 343.228 733.769C342.818 734.121 342.493 734.561 342.276 735.055C342.06 735.549 341.957 736.086 341.975 736.626C341.971 736.936 342.01 737.245 342.092 737.544C342.283 738.251 342.576 738.926 342.96 739.549C343.236 740.022 343.537 740.479 343.862 740.919C344.931 742.383 346.269 743.631 347.804 744.594C348.578 745.068 349.401 745.454 350.26 745.746C351.152 746.157 352.139 746.319 353.116 746.214C353.675 746.126 354.204 745.904 354.658 745.566C355.112 745.229 355.477 744.786 355.722 744.276C355.852 743.965 355.892 743.624 355.839 743.291C355.756 742.656 354.803 742.255 354.286 741.938Z" fill="white"/>
<path fill-rule="evenodd" clip-rule="evenodd" d="M215.675 745.178C215.134 744.747 214.504 744.444 213.83 744.291C213.156 744.137 212.456 744.138 211.783 744.293C210.78 744.71 210.112 746.297 209.477 747.099C209.339 747.291 209.136 747.426 208.905 747.479C208.674 747.531 208.432 747.497 208.225 747.383C204.522 745.932 201.42 743.271 199.422 739.833C199.246 739.619 199.162 739.345 199.187 739.07C199.212 738.795 199.344 738.541 199.555 738.363C200.329 737.654 200.904 736.756 201.226 735.757C201.28 734.685 201.031 733.62 200.507 732.683C200.078 731.379 199.291 730.222 198.236 729.343C197.69 729.093 197.084 729.007 196.491 729.096C195.897 729.185 195.343 729.445 194.895 729.844C194.115 730.511 193.497 731.346 193.086 732.286C192.675 733.226 192.483 734.247 192.523 735.273C192.526 735.835 192.593 736.395 192.723 736.943C193.095 738.286 193.657 739.569 194.394 740.751C194.9 741.657 195.458 742.532 196.064 743.374C198.085 746.153 200.626 748.514 203.547 750.323C205.009 751.243 206.573 751.989 208.208 752.545C209.908 753.312 211.782 753.612 213.637 753.413C214.692 753.24 215.691 752.816 216.548 752.176C217.406 751.537 218.097 750.701 218.564 749.738C218.833 749.154 218.915 748.5 218.798 747.867C218.464 746.565 216.727 745.83 215.675 745.178Z" fill="white"/>
<path d="M427.867 732.617C427.537 732.617 427.214 732.715 426.939 732.898C426.665 733.082 426.451 733.343 426.324 733.648C426.198 733.953 426.165 734.289 426.229 734.613C426.294 734.937 426.453 735.235 426.686 735.468C426.92 735.702 427.218 735.861 427.542 735.926C427.866 735.99 428.201 735.957 428.507 735.831C428.812 735.704 429.073 735.49 429.256 735.215C429.44 734.941 429.538 734.618 429.538 734.287C429.538 733.844 429.362 733.419 429.049 733.106C428.735 732.793 428.31 732.617 427.867 732.617Z" fill="white"/>
<path d="M420.451 734.271C419.066 734.271 417.713 734.681 416.562 735.45C415.411 736.219 414.514 737.312 413.984 738.591C413.455 739.87 413.316 741.277 413.586 742.635C413.856 743.993 414.523 745.24 415.501 746.219C416.48 747.197 417.727 747.864 419.085 748.134C420.443 748.404 421.85 748.266 423.129 747.736C424.408 747.206 425.501 746.309 426.27 745.158C427.039 744.007 427.45 742.654 427.45 741.27C427.445 739.415 426.706 737.637 425.395 736.325C424.083 735.014 422.305 734.275 420.451 734.271ZM420.451 745.746C419.561 745.746 418.692 745.482 417.952 744.988C417.213 744.493 416.637 743.791 416.298 742.969C415.958 742.147 415.87 741.242 416.045 740.37C416.219 739.498 416.649 738.697 417.279 738.07C417.909 737.442 418.712 737.015 419.584 736.844C420.457 736.672 421.361 736.764 422.182 737.106C423.002 737.449 423.703 738.027 424.195 738.769C424.687 739.51 424.947 740.38 424.944 741.27C424.955 741.866 424.847 742.458 424.626 743.012C424.405 743.566 424.075 744.07 423.657 744.495C423.238 744.92 422.739 745.257 422.188 745.486C421.638 745.715 421.047 745.832 420.451 745.83V745.746Z" fill="white"/>
<path d="M426.013 755.969H414.671C412.404 755.965 410.231 755.062 408.628 753.459C407.025 751.856 406.123 749.683 406.119 747.417V736.074C406.123 733.809 407.026 731.638 408.629 730.038C410.233 728.437 412.406 727.539 414.671 727.539H426.013C427.134 727.539 428.244 727.759 429.28 728.188C430.315 728.617 431.256 729.246 432.049 730.039C432.842 730.831 433.47 731.772 433.899 732.808C434.328 733.844 434.549 734.953 434.549 736.074V747.5C434.527 749.751 433.619 751.902 432.021 753.488C430.423 755.073 428.264 755.965 426.013 755.969ZM414.671 730.211C413.115 730.211 411.621 730.828 410.519 731.928C409.417 733.027 408.796 734.518 408.791 736.074V747.5C408.796 749.057 409.417 750.548 410.519 751.647C411.621 752.746 413.115 753.363 414.671 753.363H426.013C427.568 753.363 429.059 752.745 430.159 751.646C431.259 750.546 431.876 749.055 431.876 747.5V736.158C431.876 734.603 431.259 733.112 430.159 732.012C429.059 730.913 427.568 730.295 426.013 730.295L414.671 730.211Z" fill="white"/>
<path d="M264.1 755.117C263.931 755.118 263.764 755.084 263.609 755.018C263.454 754.952 263.314 754.855 263.198 754.733C262.966 754.493 262.837 754.173 262.837 753.839C262.837 753.506 262.966 753.186 263.198 752.946L269.98 746.164C268.213 743.929 267.322 741.125 267.476 738.28C267.63 735.435 268.817 732.744 270.815 730.712C272.164 729.366 273.823 728.372 275.647 727.819C277.471 727.267 279.403 727.173 281.272 727.545C283.141 727.917 284.89 728.744 286.363 729.953C287.836 731.162 288.988 732.716 289.718 734.477C290.447 736.237 290.731 738.151 290.545 740.047C290.359 741.944 289.708 743.765 288.65 745.35C287.592 746.936 286.159 748.235 284.479 749.135C282.799 750.034 280.923 750.505 279.017 750.507C276.38 750.524 273.818 749.627 271.767 747.968L264.985 754.733C264.872 754.855 264.735 754.952 264.583 755.018C264.431 755.084 264.266 755.118 264.1 755.117ZM279.017 729.861C276.681 729.961 274.474 730.959 272.856 732.648C271.239 734.336 270.336 736.584 270.336 738.923C270.336 741.261 271.239 743.509 272.856 745.197C274.474 746.886 276.681 747.884 279.017 747.985C280.24 748.037 281.46 747.842 282.606 747.41C283.751 746.978 284.797 746.319 285.681 745.472C286.564 744.626 287.268 743.609 287.748 742.483C288.229 741.358 288.476 740.146 288.476 738.923C288.476 737.699 288.229 736.487 287.748 735.362C287.268 734.236 286.564 733.219 285.681 732.373C284.797 731.526 283.751 730.867 282.606 730.435C281.46 730.004 280.24 729.808 279.017 729.861Z" fill="white"/>
<path d="M316.117 350.409C316.117 350.643 289.39 350.843 256.349 350.843C223.309 350.843 196.565 350.643 196.565 350.409C196.565 350.175 223.292 349.958 256.349 349.958C289.407 349.958 316.117 350.158 316.117 350.409Z" fill="#263238"/>
<path d="M279.2 617.425C280.453 616.871 281.516 615.961 282.259 614.81C283.001 613.658 283.389 612.314 283.376 610.944C283.421 610.053 283.285 609.162 282.975 608.325C282.665 607.489 282.188 606.724 281.573 606.077C280.958 605.431 280.218 604.916 279.398 604.564C278.578 604.212 277.696 604.031 276.803 604.031C275.911 604.031 275.028 604.212 274.208 604.564C273.388 604.916 272.649 605.431 272.034 606.077C271.419 606.724 270.942 607.489 270.632 608.325C270.322 609.162 270.185 610.053 270.23 610.944C270.199 612.329 270.581 613.691 271.328 614.857C272.075 616.024 273.152 616.941 274.423 617.492C264.3 619.012 264.768 630.003 264.768 630.003L288.672 630.12C288.672 630.12 289.223 618.878 279.2 617.425Z" fill="white"/>
<path d="M366.496 626.345C367.072 624.921 367.228 623.363 366.947 621.854C366.666 620.344 365.959 618.947 364.91 617.826C363.845 616.609 362.47 615.704 360.932 615.207C359.393 614.709 357.749 614.639 356.173 615.003C355.747 612.641 354.468 610.519 352.578 609.041C350.688 607.562 348.32 606.831 345.926 606.986C343.532 607.141 341.278 608.171 339.594 609.88C337.911 611.59 336.915 613.859 336.796 616.256C335.717 616.432 334.692 616.849 333.795 617.475C332.899 618.101 332.154 618.921 331.617 619.874C331.08 620.826 330.763 621.887 330.691 622.978C330.619 624.069 330.793 625.163 331.201 626.178L366.496 626.345Z" fill="white"/>
<path d="M423.859 626.529C423.859 626.992 423.721 627.445 423.463 627.83C423.205 628.215 422.839 628.514 422.411 628.691C421.983 628.867 421.512 628.913 421.058 628.821C420.603 628.729 420.187 628.505 419.86 628.176C419.534 627.848 419.313 627.429 419.224 626.975C419.136 626.52 419.185 626.049 419.364 625.622C419.544 625.195 419.846 624.831 420.233 624.576C420.62 624.321 421.073 624.187 421.537 624.19C422.154 624.195 422.745 624.443 423.18 624.881C423.614 625.319 423.859 625.911 423.859 626.529Z" fill="white"/>
<path d="M416.876 623.539C417.47 622.902 418.187 622.391 418.984 622.039C419.781 621.686 420.64 621.499 421.512 621.488C422.383 621.477 423.247 621.643 424.052 621.975C424.858 622.308 425.587 622.8 426.197 623.422C427.4 624.608 429.254 622.77 428.068 621.584C427.214 620.72 426.196 620.036 425.074 619.571C423.951 619.107 422.747 618.873 421.532 618.882C420.317 618.892 419.117 619.145 418.002 619.626C416.886 620.107 415.879 620.807 415.039 621.685C413.886 622.904 415.723 624.758 416.876 623.539Z" fill="white"/>
<path d="M408.975 612.714C412.394 609.584 416.835 607.803 421.47 607.703C426.178 607.655 430.728 609.399 434.198 612.581C435.434 613.733 437.288 611.896 436.069 610.743C432.103 607.076 426.888 605.057 421.486 605.097C416.162 605.197 411.059 607.241 407.137 610.843C405.868 611.946 407.705 613.8 408.975 612.698V612.714Z" fill="white"/>
<path d="M412.099 618.711C413.28 617.397 414.719 616.342 416.328 615.611C417.936 614.881 419.678 614.491 421.445 614.466C423.211 614.441 424.963 614.781 426.592 615.466C428.22 616.15 429.69 617.164 430.907 618.444C432.077 619.663 433.931 617.809 432.762 616.606C431.305 615.079 429.55 613.868 427.605 613.048C425.66 612.228 423.567 611.817 421.457 611.84C419.346 611.864 417.263 612.321 415.337 613.184C413.411 614.047 411.683 615.298 410.261 616.857C409.109 618.093 410.946 619.947 412.099 618.711Z" fill="white"/>
<path d="M321.294 535.73L322.412 536.039L324.143 542.827L380.152 488.223L378.421 481.434L377.303 481.125C376.803 480.988 376.403 481.064 376.16 481.301L320.151 535.906C320.394 535.669 320.794 535.593 321.294 535.73Z" fill="#566B70"/>
<path d="M319.943 537.049C319.686 536.042 320.287 535.449 321.295 535.73L322.412 536.039L324.143 542.827L323.026 542.518C322.019 542.241 321.001 541.197 320.742 540.182L319.943 537.049Z" fill="#375D68"/>
<path d="M323.867 541.765L324.136 542.803L372.203 556.455L371.933 555.413L323.867 541.765Z" fill="#2A4850"/>
<path d="M371.933 555.413L372.203 556.455L428.153 501.836L427.884 500.797L371.933 555.413Z" fill="#1E3238"/>
<path d="M323.868 541.765L371.933 555.413L427.884 500.798L379.818 487.149L323.868 541.765Z" fill="#2F505A"/>
<path d="M344.26 535.423L373.678 543.777L377.257 540.288L347.834 531.931L344.26 535.423Z" fill="#566B70"/>
<path d="M378.885 505.659L401.886 512.192L403.557 510.566L380.551 504.033L378.885 505.659Z" fill="#566B70"/>
<path d="M386.097 502.405L403.104 507.233L404.771 505.607L387.762 500.775L386.097 502.405Z" fill="#566B70"/>
<path d="M325.402 540.323L371.294 553.209L370.143 548.696L324.25 535.809L325.402 540.323Z" fill="white"/>
<path d="M424.237 501.728L371.294 553.209L370.143 548.696L423.086 497.214L424.237 501.728Z" fill="white"/>
<path d="M322.407 536.04L322.676 537.078L370.743 550.73L370.474 549.692L322.407 536.04Z" fill="#2A4850"/>
<path d="M370.474 549.692L370.743 550.73L426.694 496.115L426.425 495.077L370.474 549.692Z" fill="#1E3238"/>
<path d="M322.407 536.04L370.474 549.692L426.425 495.077L378.358 481.424L322.407 536.04Z" fill="#2F505A"/>
<path d="M342.8 529.698L372.219 538.056L375.797 534.563L346.375 526.21L342.8 529.698Z" fill="white"/>
<path d="M377.426 499.938L400.426 506.467L402.097 504.841L379.091 498.308L377.426 499.938Z" fill="white"/>
<path d="M384.637 496.68L401.645 501.512L403.312 499.886L386.303 495.054L384.637 496.68Z" fill="white"/>
</g>
<defs>
<filter id="filter0_d_105_8" x="0.449951" y="0.181641" width="656.55" height="996.747" filterUnits="userSpaceOnUse" color-interpolation-filters="sRGB">
<feFlood flood-opacity="0" result="BackgroundImageFix"/>
<feColorMatrix in="SourceAlpha" type="matrix" values="0 0 0 0 0 0 0 0 0 0 0 0 0 0 0 0 0 0 127 0" result="hardAlpha"/>
<feOffset dx="20" dy="20"/>
<feGaussianBlur stdDeviation="75"/>
<feComposite in2="hardAlpha" operator="out"/>
<feColorMatrix type="matrix" values="0 0 0 0 0.494118 0 0 0 0 0.341176 0 0 0 0 0.760784 0 0 0 1 0"/>
<feBlend mode="normal" in2="BackgroundImageFix" result="effect1_dropShadow_105_8"/>
<feBlend mode="normal" in="SourceGraphic" in2="effect1_dropShadow_105_8" result="shape"/>
</filter>
</defs>
</svg>
