<svg width="128" height="98" viewBox="0 0 128 98" fill="none" xmlns="http://www.w3.org/2000/svg">
<path d="M11.2943 65.73L12.4115 66.039L14.1429 72.8273L70.1519 18.2225L68.4206 11.4342L67.3034 11.1252C66.8027 10.9879 66.4034 11.0642 66.1605 11.3013L10.1514 65.9061C10.3943 65.669 10.7936 65.5928 11.2943 65.73Z" fill="#566B70"/>
<path d="M9.94315 67.0489C9.68632 66.0418 10.287 65.4485 11.2946 65.73L12.4117 66.0389L14.1431 72.8273L13.0259 72.5183C12.0194 72.2409 11.0012 71.1973 10.7423 70.1823L9.94315 67.0489Z" fill="#375D68"/>
<path d="M13.8674 71.7651L14.1365 72.8032L62.2027 86.4554L61.9327 85.4133L13.8674 71.7651Z" fill="#2A4850"/>
<path d="M61.933 85.4131L62.2031 86.4552L118.153 31.8356L117.884 30.7975L61.933 85.4131Z" fill="#1E3238"/>
<path d="M13.8676 71.765L61.9329 85.4132L117.884 30.7976L69.8184 17.1494L13.8676 71.765Z" fill="#2F505A"/>
<path d="M34.2597 65.4231L63.6776 73.7772L67.2572 70.2876L37.8341 61.9306L34.2597 65.4231Z" fill="#566B70"/>
<path d="M68.8849 35.6587L91.8864 42.1925L93.5567 40.5657L70.5513 34.033L68.8849 35.6587Z" fill="#566B70"/>
<path d="M76.0971 32.4049L93.1043 37.2328L94.7706 35.6071L77.7624 30.7752L76.0971 32.4049Z" fill="#566B70"/>
<path d="M15.4016 70.3228L61.2942 83.2091L60.143 78.6956L14.2505 65.8093L15.4016 70.3228Z" fill="white"/>
<path d="M114.237 31.7278L61.2939 83.2091L60.1428 78.6956L113.086 27.2143L114.237 31.7278Z" fill="white"/>
<path d="M12.4072 66.04L12.6763 67.0781L60.7425 80.7303L60.4735 79.6923L12.4072 66.04Z" fill="#2A4850"/>
<path d="M60.4738 79.6922L60.7428 80.7302L116.694 26.1146L116.425 25.0765L60.4738 79.6922Z" fill="#1E3238"/>
<path d="M12.4074 66.0399L60.4737 79.6922L116.425 25.0765L68.3582 11.4243L12.4074 66.0399Z" fill="#2F505A"/>
<path d="M32.7996 59.6982L62.2186 68.0563L65.7972 64.5627L36.3752 56.2096L32.7996 59.6982Z" fill="white"/>
<path d="M67.4258 29.9377L90.4261 36.4674L92.0965 34.8406L69.0911 28.308L67.4258 29.9377Z" fill="white"/>
<path d="M74.6369 26.6799L91.6451 31.5118L93.3114 29.8861L76.3032 25.0542L74.6369 26.6799Z" fill="white"/>
</svg>
