<svg width="118" height="93" viewBox="0 0 118 93" fill="none" xmlns="http://www.w3.org/2000/svg">
<path d="M10.7639 64.1332L11.0437 65.0608L54.8635 75.4789L54.581 74.5564L10.7639 64.1332Z" fill="#2A4850"/>
<path d="M54.5813 74.5564L54.8638 75.4789L103.123 24.1167L102.844 23.1931L54.5813 74.5564Z" fill="#1E3238"/>
<path d="M55.1033 27.5368L81.9236 33.9138L85.0073 30.6311L58.191 24.253L55.1033 27.5368Z" fill="#566B70"/>
<path d="M32.5678 55.3255L53.5365 60.3102L54.9743 58.7825L34.0044 53.7938L32.5678 55.3255Z" fill="#566B70"/>
<path d="M31.6753 59.8372L47.1799 63.5248L48.6177 61.997L33.113 58.3094L31.6753 59.8372Z" fill="#566B70"/>
<path d="M10.7639 64.1332L11.0437 65.0608L54.8635 75.4789L54.581 74.5564L10.7639 64.1332Z" fill="#2A4850"/>
<path d="M54.5813 74.5564L54.8638 75.4789L103.123 24.1167L102.844 23.1931L54.5813 74.5564Z" fill="#1E3238"/>
<path d="M55.1033 27.5368L81.9236 33.9138L85.0073 30.6311L58.191 24.253L55.1033 27.5368Z" fill="#566B70"/>
<path d="M32.5678 55.3255L53.5365 60.3102L54.9743 58.7825L34.0044 53.7938L32.5678 55.3255Z" fill="#566B70"/>
<path d="M31.6753 59.8372L47.1799 63.5248L48.6177 61.997L33.113 58.3094L31.6753 59.8372Z" fill="#566B70"/>
<path d="M10.7639 64.1332L11.0437 65.0608L54.8635 75.4789L54.581 74.5564L10.7639 64.1332Z" fill="#2A4850"/>
<path d="M54.5813 74.5564L54.8638 75.4789L103.123 24.1167L102.844 23.1931L54.5813 74.5564Z" fill="#1E3238"/>
<path d="M55.1033 27.5368L81.9236 33.9138L85.0073 30.6311L58.191 24.253L55.1033 27.5368Z" fill="#566B70"/>
<path d="M32.5678 55.3255L53.5365 60.3102L54.9743 58.7825L34.0044 53.7938L32.5678 55.3255Z" fill="#566B70"/>
<path d="M31.6753 59.8372L47.1799 63.5248L48.6177 61.997L33.113 58.3094L31.6753 59.8372Z" fill="#566B70"/>
<path d="M10.7639 64.1332L11.0437 65.0608L54.8635 75.4789L54.581 74.5564L10.7639 64.1332Z" fill="#2A4850"/>
<path d="M54.5813 74.5564L54.8638 75.4789L103.123 24.1167L102.844 23.1931L54.5813 74.5564Z" fill="#1E3238"/>
<path d="M55.1033 27.5368L81.9236 33.9138L85.0073 30.6311L58.191 24.253L55.1033 27.5368Z" fill="#566B70"/>
<path d="M32.5678 55.3255L53.5365 60.3102L54.9743 58.7825L34.0044 53.7938L32.5678 55.3255Z" fill="#566B70"/>
<path d="M31.6753 59.8372L47.1799 63.5248L48.6177 61.997L33.113 58.3094L31.6753 59.8372Z" fill="#566B70"/>
<path d="M10.7639 64.1332L11.0437 65.0608L54.8635 75.4789L54.581 74.5564L10.7639 64.1332Z" fill="#2A4850"/>
<path d="M54.5813 74.5564L54.8638 75.4789L103.123 24.1167L102.844 23.1931L54.5813 74.5564Z" fill="#1E3238"/>
<path d="M55.1033 27.5368L81.9236 33.9138L85.0073 30.6311L58.191 24.253L55.1033 27.5368Z" fill="#566B70"/>
<path d="M32.5678 55.3255L53.5365 60.3102L54.9743 58.7825L34.0044 53.7938L32.5678 55.3255Z" fill="#566B70"/>
<path d="M31.6753 59.8372L47.1799 63.5248L48.6177 61.997L33.113 58.3094L31.6753 59.8372Z" fill="#566B70"/>
<path d="M10.7639 64.1332L11.0437 65.0608L54.8635 75.4789L54.581 74.5564L10.7639 64.1332Z" fill="#2A4850"/>
<path d="M54.5813 74.5564L54.8638 75.4789L103.123 24.1167L102.844 23.1931L54.5813 74.5564Z" fill="#1E3238"/>
<path d="M55.1033 27.5368L81.9236 33.9138L85.0073 30.6311L58.191 24.253L55.1033 27.5368Z" fill="#566B70"/>
<path d="M32.5678 55.3255L53.5365 60.3102L54.9743 58.7825L34.0044 53.7938L32.5678 55.3255Z" fill="#566B70"/>
<path d="M31.6753 59.8372L47.1799 63.5248L48.6177 61.997L33.113 58.3094L31.6753 59.8372Z" fill="#566B70"/>
<path d="M10.7639 64.1332L11.0437 65.0608L54.8635 75.4789L54.581 74.5564L10.7639 64.1332Z" fill="#2A4850"/>
<path d="M54.5813 74.5564L54.8638 75.4789L103.123 24.1167L102.844 23.1931L54.5813 74.5564Z" fill="#1E3238"/>
<path d="M55.1033 27.5368L81.9236 33.9138L85.0073 30.6311L58.191 24.253L55.1033 27.5368Z" fill="#566B70"/>
<path d="M32.5678 55.3255L53.5365 60.3102L54.9743 58.7825L34.0044 53.7938L32.5678 55.3255Z" fill="#566B70"/>
<path d="M31.6753 59.8372L47.1799 63.5248L48.6177 61.997L33.113 58.3094L31.6753 59.8372Z" fill="#566B70"/>
<path d="M10.7639 64.1332L11.0437 65.0608L54.8635 75.4789L54.581 74.5564L10.7639 64.1332Z" fill="#2A4850"/>
<path d="M54.5813 74.5564L54.8638 75.4789L103.123 24.1167L102.844 23.1931L54.5813 74.5564Z" fill="#1E3238"/>
<path d="M55.1033 27.5368L81.9236 33.9138L85.0073 30.6311L58.191 24.253L55.1033 27.5368Z" fill="#566B70"/>
<path d="M32.5678 55.3255L53.5365 60.3102L54.9743 58.7825L34.0044 53.7938L32.5678 55.3255Z" fill="#566B70"/>
<path d="M31.6753 59.8372L47.1799 63.5248L48.6177 61.997L33.113 58.3094L31.6753 59.8372Z" fill="#566B70"/>
<path d="M10.7639 64.1332L11.0437 65.0608L54.8635 75.4789L54.581 74.5564L10.7639 64.1332Z" fill="#2A4850"/>
<path d="M54.5813 74.5564L54.8638 75.4789L103.123 24.1167L102.844 23.1931L54.5813 74.5564Z" fill="#1E3238"/>
<path d="M55.1033 27.5368L81.9236 33.9138L85.0073 30.6311L58.191 24.253L55.1033 27.5368Z" fill="#566B70"/>
<path d="M32.5678 55.3255L53.5365 60.3102L54.9743 58.7825L34.0044 53.7938L32.5678 55.3255Z" fill="#566B70"/>
<path d="M31.6753 59.8372L47.1799 63.5248L48.6177 61.997L33.113 58.3094L31.6753 59.8372Z" fill="#566B70"/>
<path d="M12.3193 69.2904L12.5991 70.218L56.4202 80.64L56.1364 79.7137L12.3193 69.2904Z" fill="#C73F3E"/>
<path d="M56.1365 79.7137L56.4202 80.64L104.679 29.2779L104.399 28.3503L56.1365 79.7137Z" fill="#1E3238"/>
<path d="M12.3194 69.2904L56.1364 79.7137L104.399 28.3503L60.5793 17.9322L12.3194 69.2904Z" fill="#E25534"/>
<path d="M14.5565 68.5335L56.387 78.3493L55.1747 74.3298L13.343 64.51L14.5565 68.5335Z" fill="white"/>
<path d="M10.7639 64.1331L11.0437 65.0607L54.8635 75.4787L54.581 74.5563L10.7639 64.1331Z" fill="#C73F3E"/>
<path d="M54.581 74.5563L54.8636 75.4787L103.122 24.1166L102.844 23.193L54.581 74.5563Z" fill="#1E3238"/>
<path d="M10.76 64.1343L54.581 74.5564L102.84 23.1942L59.0227 12.771L10.76 64.1343Z" fill="#FF5150"/>
<path d="M55.1033 27.5368L81.9236 33.9138L85.0073 30.6311L58.191 24.253L55.1033 27.5368Z" fill="white"/>
<path d="M32.5678 55.3255L53.5365 60.3102L54.9743 58.7825L34.0044 53.7938L32.5678 55.3255Z" fill="white"/>
<path d="M31.6753 59.8372L47.1799 63.5248L48.6177 61.997L33.113 58.3094L31.6753 59.8372Z" fill="white"/>
<path d="M54.5811 74.5564L56.1584 74.0937C57.0653 74.3045 58.0755 75.2021 58.3457 76.098L58.5841 79.5983C58.8543 80.4942 58.3352 81.0529 57.4283 80.8421L56.4016 80.6068L54.5811 74.5564Z" fill="#C73F3E"/>
<path d="M55.608 74.7916C56.5149 75.0024 57.474 75.9024 57.7442 76.7983L58.5883 79.597C58.7245 80.0489 58.6616 80.4139 58.4482 80.6382L106.711 29.2749C106.924 29.0505 106.987 28.6856 106.851 28.2337L106.007 25.435C105.737 24.5391 104.778 23.6391 103.871 23.4283L102.843 23.1891L54.5801 74.5524L55.608 74.7916Z" fill="#C73F3E"/>
</svg>
