<svg width="225" height="365" viewBox="0 0 225 365" fill="none" xmlns="http://www.w3.org/2000/svg">
<path d="M134 290.5V248H224.5V290.5H134Z" fill="#FFB534" stroke="#FFB534"/>
<g filter="url(#filter0_d_62_4)">
<path d="M97.1591 350H16.5128V131.818H97.0526C119.283 131.818 138.423 136.186 154.474 144.922C170.597 153.587 183.026 166.087 191.761 182.422C200.497 198.686 204.865 218.146 204.865 240.803C204.865 263.53 200.497 283.061 191.761 299.396C183.097 315.732 170.703 328.267 154.581 337.003C138.459 345.668 119.318 350 97.1591 350ZM69.2472 305.043H95.1349C107.351 305.043 117.685 302.983 126.136 298.864C134.659 294.673 141.087 287.891 145.419 278.516C149.822 269.07 152.024 256.499 152.024 240.803C152.024 225.107 149.822 212.607 145.419 203.303C141.016 193.928 134.517 187.18 125.923 183.061C117.401 178.871 106.889 176.776 94.3892 176.776H69.2472V305.043Z" fill="#65B741"/>
</g>
<path d="M134.247 72.8182V291H81.5128V72.8182H134.247Z" fill="#FFB534"/>
<path d="M37.3518 192.514L23.9164 192.668C23.5395 192.673 23.1798 192.826 22.9163 193.095C22.6529 193.363 22.5073 193.725 22.5116 194.101L22.6821 208.972C22.6842 209.16 22.7611 209.339 22.8959 209.47C23.0307 209.601 23.2122 209.674 23.4007 209.672L35.4449 209.534C35.4805 209.533 35.55 209.527 35.6168 209.522L37.5466 209.51C38.7388 209.496 39.7183 210.393 39.7319 211.58C39.7455 212.768 38.8173 213.745 37.6251 213.758L21.2838 213.946L21.0971 197.658C21.0926 197.267 20.8048 196.953 20.4112 196.958C20.0176 196.962 19.6716 197.284 19.6761 197.675L19.8709 214.67C19.8754 215.061 20.23 215.374 20.6222 215.37L37.6115 215.175C38.5519 215.164 39.4502 214.784 40.1119 214.118C40.7737 213.452 41.1459 212.553 41.1478 211.616L41.1536 211.623L40.975 196.044C40.964 195.097 40.5761 194.193 39.8966 193.531C39.2172 192.869 38.3018 192.504 37.3518 192.514Z" fill="#FFB534"/>
<path d="M37.6454 218.131L24.21 218.285C23.8331 218.289 23.4734 218.442 23.2099 218.711C22.9465 218.98 22.8009 219.341 22.8052 219.717L22.9757 234.588C22.9778 234.776 23.0548 234.955 23.1895 235.086C23.3243 235.218 23.5059 235.29 23.6943 235.288L35.7386 235.15C35.7741 235.15 35.8436 235.143 35.9104 235.138L37.8402 235.126C39.0324 235.112 40.0119 236.009 40.0255 237.196C40.0392 238.384 39.1109 239.361 37.9187 239.374L21.5774 239.562L21.3907 223.274C21.3862 222.884 21.0984 222.57 20.7048 222.574C20.3112 222.579 19.9653 222.9 19.9697 223.291L20.1645 240.286C20.169 240.677 20.5236 240.99 20.9158 240.986L37.9051 240.791C38.8455 240.78 39.7438 240.4 40.4056 239.734C41.0674 239.068 41.4395 238.169 41.4414 237.232L41.4472 237.239L41.2686 221.66C41.2576 220.713 40.8697 219.809 40.1902 219.147C39.5108 218.486 38.5954 218.12 37.6454 218.131Z" fill="#FFB534"/>
<path d="M37.0081 244.25L23.5727 244.404C23.1958 244.408 22.8361 244.562 22.5726 244.83C22.3092 245.099 22.1636 245.461 22.1679 245.837L22.3384 260.708C22.3405 260.895 22.4175 261.075 22.5522 261.206C22.687 261.337 22.8686 261.41 23.057 261.408L35.1013 261.27C35.1368 261.269 35.2064 261.263 35.2731 261.258L37.2029 261.245C38.3951 261.232 39.3746 262.129 39.3882 263.315C39.4019 264.504 38.4737 265.48 37.2814 265.494L20.9401 265.681L20.7534 249.394C20.7489 249.003 20.4611 248.689 20.0675 248.694C19.6739 248.698 19.328 249.019 19.3324 249.41L19.5272 266.406C19.5317 266.797 19.8863 267.11 20.2785 267.105L37.2678 266.911C38.2082 266.9 39.1065 266.52 39.7683 265.854C40.4301 265.188 40.8022 264.289 40.8041 263.352L40.8099 263.359L40.6313 247.78C40.6203 246.833 40.2324 245.929 39.553 245.267C38.8735 244.605 37.9581 244.239 37.0081 244.25Z" fill="#FFB534"/>
<path d="M37.313 270.852L23.8776 271.006C23.5007 271.01 23.141 271.163 22.8776 271.432C22.6141 271.701 22.4685 272.062 22.4728 272.438L22.6433 287.309C22.6455 287.497 22.7224 287.676 22.8571 287.807C22.9919 287.939 23.1735 288.011 23.3619 288.009L35.4062 287.871C35.4417 287.871 35.5113 287.864 35.578 287.859L37.5078 287.847C38.7 287.833 39.6796 288.73 39.6932 289.917C39.7068 291.105 38.7786 292.082 37.5864 292.095L21.245 292.283L21.0583 275.995C21.0539 275.605 20.766 275.291 20.3724 275.295C19.9788 275.3 19.6329 275.621 19.6374 276.012L19.8322 293.007C19.8366 293.398 20.1913 293.711 20.5835 293.707L37.5728 293.512C38.5132 293.501 39.4114 293.121 40.0732 292.455C40.735 291.789 41.1071 290.89 41.1091 289.953L41.1148 289.96L40.9363 274.381C40.9252 273.434 40.5373 272.53 39.8579 271.868C39.1784 271.207 38.263 270.841 37.313 270.852Z" fill="#FFB534"/>
<path d="M38.4291 164.032L24.9937 164.186C24.6168 164.19 24.2571 164.343 23.9936 164.612C23.7302 164.881 23.5846 165.243 23.5889 165.618L23.7594 180.489C23.7615 180.677 23.8384 180.856 23.9732 180.987C24.108 181.119 24.2895 181.191 24.478 181.189L36.5223 181.051C36.5578 181.051 36.6273 181.044 36.6941 181.039L38.6239 181.027C39.8161 181.013 40.7956 181.91 40.8092 183.097C40.8228 184.285 39.8946 185.262 38.7024 185.275L22.3611 185.463L22.1744 169.175C22.1699 168.785 21.8821 168.471 21.4885 168.475C21.0949 168.48 20.7489 168.801 20.7534 169.192L20.9482 186.187C20.9527 186.578 21.3073 186.891 21.6995 186.887L38.6888 186.692C39.6292 186.681 40.5275 186.301 41.1893 185.635C41.851 184.969 42.2232 184.07 42.2251 183.133L42.2309 183.14L42.0523 167.561C42.0413 166.614 41.6534 165.71 40.9739 165.048C40.2945 164.387 39.3791 164.021 38.4291 164.032Z" fill="#FFB534"/>
<path d="M38.4291 136.041L24.9937 136.195C24.6168 136.199 24.2571 136.353 23.9936 136.621C23.7302 136.89 23.5846 137.252 23.5889 137.628L23.7594 152.499C23.7615 152.686 23.8384 152.866 23.9732 152.997C24.108 153.128 24.2895 153.201 24.478 153.199L36.5222 153.061C36.5578 153.06 36.6273 153.054 36.6941 153.049L38.6239 153.036C39.8161 153.023 40.7956 153.919 40.8092 155.106C40.8228 156.295 39.8946 157.271 38.7024 157.285L22.3611 157.472L22.1744 141.185C22.1699 140.794 21.8821 140.48 21.4885 140.485C21.0949 140.489 20.7489 140.81 20.7534 141.201L20.9482 158.197C20.9527 158.588 21.3073 158.901 21.6995 158.896L38.6888 158.702C39.6292 158.69 40.5275 158.311 41.1893 157.645C41.851 156.979 42.2232 156.08 42.2251 155.142L42.2309 155.15L42.0523 139.57C42.0413 138.624 41.6534 137.72 40.9739 137.058C40.2945 136.396 39.3791 136.03 38.4291 136.041Z" fill="#FFB534"/>
<path d="M63.028 191.514L49.5926 191.668C49.2157 191.673 48.856 191.826 48.5926 192.095C48.3291 192.363 48.1835 192.725 48.1878 193.101L48.3583 207.972C48.3605 208.16 48.4374 208.339 48.5721 208.47C48.7069 208.601 48.8885 208.674 49.0769 208.672L61.1212 208.534C61.1567 208.533 61.2263 208.527 61.293 208.522L63.2228 208.51C64.415 208.496 65.3945 209.393 65.4082 210.58C65.4218 211.768 64.4936 212.745 63.3014 212.758L46.96 212.946L46.7733 196.658C46.7689 196.267 46.481 195.953 46.0874 195.958C45.6938 195.962 45.3479 196.284 45.3524 196.675L45.5472 213.67C45.5516 214.061 45.9063 214.374 46.2984 214.37L63.2877 214.175C64.2281 214.164 65.1264 213.784 65.7882 213.118C66.45 212.452 66.8221 211.553 66.8241 210.616L66.8298 210.623L66.6512 195.044C66.6402 194.097 66.2523 193.193 65.5729 192.531C64.8934 191.87 63.978 191.504 63.028 191.514Z" fill="#FFB534"/>
<path d="M63.3216 217.131L49.8862 217.285C49.5094 217.289 49.1496 217.442 48.8862 217.711C48.6227 217.98 48.4772 218.341 48.4815 218.717L48.6519 233.588C48.6541 233.776 48.731 233.955 48.8658 234.086C49.0005 234.218 49.1821 234.29 49.3705 234.288L61.4148 234.15C61.4503 234.15 61.5199 234.143 61.5866 234.138L63.5164 234.126C64.7086 234.112 65.6882 235.009 65.7018 236.196C65.7154 237.384 64.7872 238.361 63.595 238.374L47.2537 238.562L47.067 222.274C47.0625 221.884 46.7746 221.57 46.381 221.574C45.9874 221.579 45.6415 221.9 45.646 222.291L45.8408 239.286C45.8453 239.677 46.1999 239.99 46.5921 239.986L63.5814 239.791C64.5218 239.78 65.42 239.4 66.0818 238.734C66.7436 238.068 67.1157 237.169 67.1177 236.232L67.1234 236.239L66.9449 220.66C66.9338 219.713 66.5459 218.809 65.8665 218.147C65.187 217.486 64.2717 217.12 63.3216 217.131Z" fill="#FFB534"/>
<path d="M62.6843 243.25L49.2489 243.404C48.8721 243.408 48.5123 243.562 48.2489 243.83C47.9854 244.099 47.8399 244.461 47.8442 244.837L48.0146 259.708C48.0168 259.895 48.0937 260.075 48.2285 260.206C48.3632 260.337 48.5448 260.41 48.7332 260.408L60.7775 260.27C60.813 260.269 60.8826 260.263 60.9493 260.258L62.8792 260.246C64.0714 260.232 65.0509 261.129 65.0645 262.315C65.0781 263.504 64.1499 264.48 62.9577 264.494L46.6164 264.681L46.4297 248.394C46.4252 248.003 46.1374 247.689 45.7437 247.694C45.3501 247.698 45.0042 248.019 45.0087 248.41L45.2035 265.406C45.208 265.797 45.5626 266.11 45.9548 266.105L62.9441 265.911C63.8845 265.9 64.7827 265.52 65.4445 264.854C66.1063 264.188 66.4784 263.289 66.4804 262.352L66.4862 262.359L66.3076 246.78C66.2965 245.833 65.9086 244.929 65.2292 244.267C64.5497 243.605 63.6344 243.239 62.6843 243.25Z" fill="#FFB534"/>
<path d="M62.9893 269.852L49.5538 270.006C49.177 270.01 48.8172 270.163 48.5538 270.432C48.2904 270.701 48.1448 271.063 48.1491 271.438L48.3195 286.309C48.3217 286.497 48.3986 286.676 48.5334 286.807C48.6681 286.939 48.8497 287.011 49.0382 287.009L61.0824 286.871C61.118 286.871 61.1875 286.864 61.2543 286.859L63.1841 286.847C64.3763 286.833 65.3558 287.73 65.3694 288.917C65.383 290.105 64.4548 291.082 63.2626 291.095L46.9213 291.283L46.7346 274.995C46.7301 274.605 46.4423 274.291 46.0487 274.295C45.655 274.3 45.3091 274.621 45.3136 275.012L45.5084 292.007C45.5129 292.398 45.8675 292.711 46.2597 292.707L63.249 292.512C64.1894 292.501 65.0876 292.121 65.7494 291.455C66.4112 290.789 66.7833 289.89 66.7853 288.953L66.7911 288.96L66.6125 273.381C66.6015 272.434 66.2136 271.53 65.5341 270.868C64.8547 270.207 63.9393 269.841 62.9893 269.852Z" fill="#FFB534"/>
<path d="M64.1053 163.032L50.6699 163.186C50.293 163.19 49.9333 163.343 49.6699 163.612C49.4064 163.881 49.2609 164.243 49.2652 164.618L49.4356 179.489C49.4378 179.677 49.5147 179.856 49.6495 179.987C49.7842 180.119 49.9658 180.191 50.1542 180.189L62.1985 180.051C62.234 180.051 62.3036 180.044 62.3703 180.039L64.3001 180.027C65.4923 180.013 66.4719 180.91 66.4855 182.097C66.4991 183.285 65.5709 184.262 64.3787 184.275L48.0373 184.463L47.8507 168.176C47.8462 167.785 47.5583 167.471 47.1647 167.475C46.7711 167.48 46.4252 167.801 46.4297 168.192L46.6245 185.187C46.629 185.578 46.9836 185.891 47.3758 185.887L64.3651 185.692C65.3055 185.681 66.2037 185.301 66.8655 184.635C67.5273 183.969 67.8994 183.07 67.9014 182.133L67.9071 182.14L67.7286 166.561C67.7175 165.614 67.3296 164.71 66.6502 164.049C65.9707 163.387 65.0554 163.021 64.1053 163.032Z" fill="#FFB534"/>
<path d="M64.1053 135.041L50.6699 135.195C50.293 135.199 49.9333 135.353 49.6699 135.621C49.4064 135.89 49.2609 136.252 49.2652 136.628L49.4356 151.499C49.4378 151.686 49.5147 151.866 49.6495 151.997C49.7842 152.128 49.9658 152.201 50.1542 152.199L62.1985 152.061C62.234 152.06 62.3036 152.054 62.3703 152.049L64.3001 152.036C65.4923 152.023 66.4719 152.92 66.4855 154.106C66.4991 155.295 65.5709 156.271 64.3787 156.285L48.0373 156.472L47.8507 140.185C47.8462 139.794 47.5583 139.48 47.1647 139.485C46.7711 139.489 46.4252 139.81 46.4297 140.201L46.6245 157.197C46.629 157.588 46.9836 157.901 47.3758 157.896L64.3651 157.702C65.3055 157.691 66.2037 157.311 66.8655 156.645C67.5273 155.979 67.8994 155.08 67.9014 154.143L67.9071 154.15L67.7286 138.571C67.7175 137.624 67.3296 136.72 66.6502 136.058C65.9707 135.396 65.0554 135.03 64.1053 135.041Z" fill="#FFB534"/>
<path d="M62.9892 295.668L49.5538 295.822C49.1769 295.826 48.8172 295.979 48.5537 296.248C48.2903 296.517 48.1447 296.879 48.149 297.254L48.3195 312.125C48.3216 312.313 48.3986 312.492 48.5333 312.624C48.6681 312.755 48.8497 312.827 49.0381 312.825L61.0824 312.687C61.1179 312.687 61.1875 312.68 61.2542 312.675L63.184 312.663C64.3762 312.649 65.3557 313.546 65.3693 314.733C65.383 315.921 64.4547 316.898 63.2625 316.912L46.9212 317.099L46.7345 300.812C46.73 300.421 46.4422 300.107 46.0486 300.111C45.655 300.116 45.3091 300.437 45.3135 300.828L45.5083 317.823C45.5128 318.214 45.8674 318.527 46.2596 318.523L63.2489 318.328C64.1893 318.317 65.0876 317.938 65.7494 317.271C66.4112 316.605 66.7833 315.707 66.7852 314.769L66.791 314.776L66.6124 299.197C66.6014 298.25 66.2135 297.346 65.534 296.685C64.8546 296.023 63.9392 295.657 62.9892 295.668Z" fill="#FFB534"/>
<path d="M37.5697 295.668L24.1342 295.822C23.7574 295.826 23.3976 295.979 23.1342 296.248C22.8708 296.517 22.7252 296.879 22.7295 297.254L22.8999 312.125C22.9021 312.313 22.979 312.492 23.1138 312.624C23.2486 312.755 23.4301 312.827 23.6186 312.825L35.6628 312.687C35.6984 312.687 35.7679 312.68 35.8347 312.675L37.7645 312.663C38.9567 312.649 39.9362 313.546 39.9498 314.733C39.9634 315.921 39.0352 316.898 37.843 316.912L21.5017 317.099L21.315 300.812C21.3105 300.421 21.0227 300.107 20.6291 300.111C20.2354 300.116 19.8895 300.437 19.894 300.828L20.0888 317.823C20.0933 318.214 20.4479 318.527 20.8401 318.523L37.8294 318.328C38.7698 318.317 39.668 317.938 40.3298 317.271C40.9916 316.605 41.3638 315.707 41.3657 314.769L41.3715 314.776L41.1929 299.197C41.1819 298.25 40.794 297.346 40.1145 296.685C39.4351 296.023 38.5197 295.657 37.5697 295.668Z" fill="#FFB534"/>
<path d="M62.9938 322.747L49.5584 322.901C49.1816 322.905 48.8218 323.059 48.5584 323.327C48.295 323.596 48.1494 323.958 48.1537 324.334L48.3241 339.204C48.3263 339.392 48.4032 339.572 48.538 339.703C48.6727 339.834 48.8543 339.907 49.0427 339.904L61.087 339.766C61.1225 339.766 61.1921 339.76 61.2588 339.755L63.1887 339.742C64.3809 339.729 65.3604 340.625 65.374 341.812C65.3876 343 64.4594 343.977 63.2672 343.991L46.9259 344.178L46.7392 327.891C46.7347 327.5 46.4469 327.186 46.0532 327.191C45.6596 327.195 45.3137 327.516 45.3182 327.907L45.513 344.903C45.5175 345.293 45.8721 345.607 46.2643 345.602L63.2536 345.407C64.194 345.396 65.0922 345.017 65.754 344.351C66.4158 343.685 66.7879 342.786 66.7899 341.848L66.7957 341.855L66.6171 326.276C66.606 325.329 66.2181 324.426 65.5387 323.764C64.8593 323.102 63.9439 322.736 62.9938 322.747Z" fill="#FFB534"/>
<path d="M37.5743 322.747L24.1389 322.901C23.762 322.905 23.4023 323.059 23.1389 323.327C22.8754 323.596 22.7298 323.958 22.7341 324.334L22.9046 339.204C22.9068 339.392 22.9837 339.572 23.1184 339.703C23.2532 339.834 23.4348 339.907 23.6232 339.904L35.6675 339.766C35.703 339.766 35.7726 339.76 35.8393 339.755L37.7691 339.742C38.9613 339.729 39.9408 340.625 39.9545 341.812C39.9681 343 39.0399 343.977 37.8477 343.991L21.5063 344.178L21.3196 327.891C21.3152 327.5 21.0273 327.186 20.6337 327.191C20.2401 327.195 19.8942 327.516 19.8987 327.907L20.0935 344.903C20.0979 345.293 20.4526 345.607 20.8448 345.602L37.8341 345.407C38.7745 345.396 39.6727 345.017 40.3345 344.351C40.9963 343.685 41.3684 342.786 41.3704 341.848L41.3761 341.855L41.1976 326.276C41.1865 325.329 40.7986 324.426 40.1192 323.764C39.4397 323.102 38.5243 322.736 37.5743 322.747Z" fill="#FFB534"/>
<defs>
<filter id="filter0_d_62_4" x="9.51282" y="126.818" width="208.352" height="238.182" filterUnits="userSpaceOnUse" color-interpolation-filters="sRGB">
<feFlood flood-opacity="0" result="BackgroundImageFix"/>
<feColorMatrix in="SourceAlpha" type="matrix" values="0 0 0 0 0 0 0 0 0 0 0 0 0 0 0 0 0 0 127 0" result="hardAlpha"/>
<feOffset dx="3" dy="5"/>
<feGaussianBlur stdDeviation="5"/>
<feComposite in2="hardAlpha" operator="out"/>
<feColorMatrix type="matrix" values="0 0 0 0 0 0 0 0 0 0 0 0 0 0 0 0 0 0 0.5 0"/>
<feBlend mode="normal" in2="BackgroundImageFix" result="effect1_dropShadow_62_4"/>
<feBlend mode="normal" in="SourceGraphic" in2="effect1_dropShadow_62_4" result="shape"/>
</filter>
</defs>
</svg>
