<svg width="380" height="355" viewBox="0 0 380 355" fill="none" xmlns="http://www.w3.org/2000/svg">
<path d="M248.5 233L373.131 231.376C371.616 180.034 349.865 129.729 315.842 96.76L230 187.5C245.193 202.561 247.504 209.902 248.5 233Z" fill="url(#paint0_linear_335_2046)" fill-opacity="0.4"/>
<path d="M191.611 45.3301C144.948 45.8601 98.3941 64.1224 66.2758 93.8897L148.5 187C163.131 173.817 168.071 170.986 189 170.5L191.611 45.3301Z" fill="url(#paint1_linear_335_2046)" fill-opacity="0.4"/>
<path d="M148.5 187L66.2758 93.8897C32.2313 126.859 7.5583 180.034 6.04329 231.376L132.5 228.5C133.496 205.402 141.049 202.199 148.5 187Z" fill="url(#paint2_linear_335_2046)" fill-opacity="0.4"/>
<path d="M373.153 232.899C373.153 232.369 373.131 231.883 373.131 231.376L248.5 233C245.79 247.581 236.951 253.447 229.5 264.5L334.5 353C361.597 320.318 373.153 279.096 373.153 232.899Z" fill="url(#paint3_linear_335_2046)" fill-opacity="0.4"/>
<path d="M315.842 96.76C283.723 66.9927 238.273 45.8601 191.611 45.3301L189 170.5C208.642 173.264 219.162 177.829 230 187.5L315.842 96.76Z" fill="url(#paint4_linear_335_2046)" fill-opacity="0.4"/>
<path d="M6.04329 231.376C6.04329 231.883 6 232.369 6 232.899C6 279.096 17.4246 317.818 44.5 350.5L145 266.5C134.162 251.993 132.5 236.863 132.5 228.5L6.04329 231.376Z" fill="url(#paint5_linear_335_2046)" fill-opacity="0.4"/>
<g filter="url(#filter0_b_335_2046)">
<path d="M244.224 232L379.26 230.456C377.695 178.449 355.225 127.493 320.078 94.0964L228.129 188.687C243.825 203.943 243.196 208.602 244.224 232Z" fill="white" fill-opacity="0.03"/>
<path d="M191.743 42C143.539 42.5368 95.4466 61.0358 62.2672 91.1889L147.654 191.486C162.768 178.132 170.123 173.784 191.743 173.292V42Z" fill="white" fill-opacity="0.03"/>
<path d="M147.654 191.486L62.2672 91.1889C27.0979 124.585 1.60978 178.449 0.0447161 230.456L134.358 232C135.387 208.602 139.957 206.882 147.654 191.486Z" fill="white" fill-opacity="0.03"/>
<path d="M379.282 232C379.282 231.463 379.26 230.971 379.26 230.456L244.224 232C241.425 246.769 237.226 253.067 229.529 264.264L334.365 354.67C362.357 321.564 379.282 278.795 379.282 232Z" fill="white" fill-opacity="0.03"/>
<path d="M320.078 94.0964C286.899 63.9433 239.947 42.5368 191.743 42V173.292C212.034 176.091 216.933 178.89 228.129 188.687L320.078 94.0964Z" fill="white" fill-opacity="0.03"/>
<path d="M0.0447161 230.456C0.0447161 230.971 0 231.463 0 232C0 278.795 16.9474 321.564 44.9174 354.67L147.654 264.264C136.458 249.568 134.358 240.471 134.358 232L0.0447161 230.456Z" fill="white" fill-opacity="0.03"/>
</g>
<path d="M266.437 227.631L354.864 225.929C353.495 180.444 333.931 139.576 303.178 110.367L242.98 175.416C256.714 188.758 265.537 207.168 266.437 227.631Z" fill="#3DFCA9"/>
<path d="M187.204 64.8047C145.025 65.2742 106.622 81.4533 77.5898 107.825L137.826 172.893C151.051 161.214 168.286 153.975 187.204 153.545V64.8047Z" fill="#FF8C43"/>
<path d="M135.109 175.416L74.9311 110.367C44.1576 139.576 24.5941 180.444 23.2246 225.929L111.652 227.631C112.552 207.168 121.375 188.758 135.109 175.416Z" fill="#FF6166"/>
<path d="M354.984 230.979C354.984 230.509 354.964 230.079 354.964 229.629L266.517 231.331C266.478 249.955 259.866 267.054 248.891 280.396L315.681 338.265C340.174 309.311 354.984 271.906 354.984 230.979Z" fill="#34E99B"/>
<path d="M299.868 108.253C270.836 81.881 232.433 65.7019 190.254 65.2324V153.973C209.191 154.403 226.407 161.642 239.652 173.321L299.868 108.253Z" fill="#FFD831"/>
<path d="M23.2464 229.494C23.2464 229.944 23.2073 230.375 23.2073 230.844C23.2073 271.771 38.4398 308.846 62.9138 337.8L129.704 279.931C118.729 266.589 111.732 249.821 111.674 231.196L23.2464 229.494Z" fill="#EE5358"/>
<path d="M245.526 228.022L266.439 227.631C265.539 207.168 256.716 188.758 242.982 175.416L228.877 190.656C238.6 200.301 244.782 213.428 245.526 228.022Z" fill="#35F1A0"/>
<path d="M246.192 227.579C245.448 212.985 239.266 199.857 229.543 190.213L243.648 174.973C257.382 188.315 266.205 206.724 267.105 227.188L246.192 227.579Z" fill="#35F1A0"/>
<path d="M187.207 174.343V153.547C168.289 153.977 151.053 161.216 137.828 172.895L151.953 188.174C161.461 179.899 173.727 174.773 187.207 174.343Z" fill="#FDD600"/>
<path d="M151.953 188.174L137.828 172.895C151.053 161.216 168.289 153.977 187.207 153.547V174.343C173.727 174.773 161.461 179.899 151.953 188.174Z" fill="#FF7C29"/>
<path d="M149.214 190.656L135.109 175.416C121.375 188.758 112.552 207.168 111.652 227.631L132.566 228.022C133.309 213.428 139.511 200.301 149.214 190.656Z" fill="#F3575C"/>
<path d="M245.642 231.721C245.466 244.966 240.732 257.037 232.984 266.603L248.89 280.395C259.865 267.053 266.477 249.955 266.516 231.33L245.642 231.721Z" fill="#098C35"/>
<path d="M248.89 280.395L232.984 266.603C240.732 257.037 245.466 244.966 245.642 231.721L266.516 231.33C266.477 249.955 259.865 267.053 248.89 280.395Z" fill="#2BDB8F"/>
<path d="M226.138 188.172L240.283 172.893C227.038 161.214 209.822 153.975 190.885 153.545V174.341C204.364 174.771 216.63 179.897 226.138 188.172Z" fill="#EDC727"/>
<path d="M225.507 187.922C216 179.647 203.733 174.521 190.254 174.091V153.295C209.191 153.725 226.407 160.964 239.652 172.643L225.507 187.922Z" fill="#EDC727"/>
<path d="M132.449 231.721L111.574 231.33C111.633 249.955 118.226 267.053 129.201 280.395L145.106 266.603C137.359 257.037 132.625 244.966 132.449 231.721Z" fill="#D61721"/>
<path d="M129.201 280.395C118.226 267.053 111.633 249.955 111.574 231.33L132.449 231.721C132.625 244.966 137.359 257.037 145.106 266.603L129.201 280.395Z" fill="#E64E53"/>
<path d="M196.069 215.874L165.158 205.74L196.069 215.874Z" fill="#B0B0B0"/>
<path d="M337.402 68.5695C338.506 68.5544 339.389 67.6468 339.374 66.5423L339.127 48.544C339.112 47.4395 338.205 46.5565 337.1 46.5716C335.996 46.5868 335.113 47.4944 335.128 48.5989L335.347 64.5974L319.349 64.8169C318.244 64.8321 317.361 65.7397 317.376 66.8442C317.392 67.9486 318.299 68.8317 319.404 68.8165L337.402 68.5695ZM33.6031 68.0243C59.1899 43.8782 105.07 14.873 159.399 6.42051C213.616 -2.01467 276.354 9.99187 335.98 68.0032L338.769 65.1362C278.199 6.20558 214.182 -6.15081 158.784 2.46806C103.497 11.0696 56.904 40.5354 30.8578 65.1152L33.6031 68.0243Z" fill="url(#paint6_linear_335_2046)"/>
<defs>
<filter id="filter0_b_335_2046" x="-120" y="-78" width="619.282" height="552.67" filterUnits="userSpaceOnUse" color-interpolation-filters="sRGB">
<feFlood flood-opacity="0" result="BackgroundImageFix"/>
<feGaussianBlur in="BackgroundImageFix" stdDeviation="60"/>
<feComposite in2="SourceAlpha" operator="in" result="effect1_backgroundBlur_335_2046"/>
<feBlend mode="normal" in="SourceGraphic" in2="effect1_backgroundBlur_335_2046" result="shape"/>
</filter>
<linearGradient id="paint0_linear_335_2046" x1="6" y1="199.665" x2="373.153" y2="199.665" gradientUnits="userSpaceOnUse">
<stop stop-color="#D9494E"/>
<stop offset="0.234375" stop-color="#F18642"/>
<stop offset="0.59375" stop-color="#F3CD2C"/>
<stop offset="0.802083" stop-color="#30D48D"/>
<stop offset="1" stop-color="#26C07E"/>
</linearGradient>
<linearGradient id="paint1_linear_335_2046" x1="6" y1="199.665" x2="373.153" y2="199.665" gradientUnits="userSpaceOnUse">
<stop stop-color="#D9494E"/>
<stop offset="0.234375" stop-color="#F18642"/>
<stop offset="0.59375" stop-color="#F3CD2C"/>
<stop offset="0.802083" stop-color="#30D48D"/>
<stop offset="1" stop-color="#26C07E"/>
</linearGradient>
<linearGradient id="paint2_linear_335_2046" x1="6" y1="199.665" x2="373.153" y2="199.665" gradientUnits="userSpaceOnUse">
<stop stop-color="#D9494E"/>
<stop offset="0.234375" stop-color="#F18642"/>
<stop offset="0.59375" stop-color="#F3CD2C"/>
<stop offset="0.802083" stop-color="#30D48D"/>
<stop offset="1" stop-color="#26C07E"/>
</linearGradient>
<linearGradient id="paint3_linear_335_2046" x1="6" y1="199.665" x2="373.153" y2="199.665" gradientUnits="userSpaceOnUse">
<stop stop-color="#D9494E"/>
<stop offset="0.234375" stop-color="#F18642"/>
<stop offset="0.59375" stop-color="#F3CD2C"/>
<stop offset="0.802083" stop-color="#30D48D"/>
<stop offset="1" stop-color="#26C07E"/>
</linearGradient>
<linearGradient id="paint4_linear_335_2046" x1="6" y1="199.665" x2="373.153" y2="199.665" gradientUnits="userSpaceOnUse">
<stop stop-color="#D9494E"/>
<stop offset="0.234375" stop-color="#F18642"/>
<stop offset="0.59375" stop-color="#F3CD2C"/>
<stop offset="0.802083" stop-color="#30D48D"/>
<stop offset="1" stop-color="#26C07E"/>
</linearGradient>
<linearGradient id="paint5_linear_335_2046" x1="6" y1="199.665" x2="373.153" y2="199.665" gradientUnits="userSpaceOnUse">
<stop stop-color="#D9494E"/>
<stop offset="0.234375" stop-color="#F18642"/>
<stop offset="0.59375" stop-color="#F3CD2C"/>
<stop offset="0.802083" stop-color="#30D48D"/>
<stop offset="1" stop-color="#26C07E"/>
</linearGradient>
<linearGradient id="paint6_linear_335_2046" x1="40.3017" y1="40.3383" x2="336.919" y2="66.5697" gradientUnits="userSpaceOnUse">
<stop stop-color="#1E193E" stop-opacity="0"/>
<stop offset="1" stop-color="#AFA4F8"/>
</linearGradient>
</defs>
</svg>
